<svg viewBox="0 0 700 334" xmlns="http://www.w3.org/2000/svg">
<text x="350" y="24" font-family="-apple-system, BlinkMacSystemFont, 'Segoe UI', sans-serif" font-size="15" font-weight="bold" text-anchor="middle" fill="#1e293b">Amending the Last Commit</text>
<text x="12" y="48" font-family="-apple-system, BlinkMacSystemFont, 'Segoe UI', sans-serif" font-size="12" font-weight="600" fill="#94a3b8">Before</text>
<circle cx="75" cy="100" r="20" fill="#FFD700" stroke="#DAA520" stroke-width="2"/>
<text x="75" y="100" font-family="monospace" font-size="12" font-weight="bold" text-anchor="middle" dominant-baseline="middle" fill="#1e293b">C1</text>
<line x1="95" y1="100" x2="190" y2="100" stroke="#94a3b8" stroke-width="2" fill="none"/>
<circle cx="210" cy="100" r="20" fill="#FFD700" stroke="#DAA520" stroke-width="2"/>
<text x="210" y="100" font-family="monospace" font-size="12" font-weight="bold" text-anchor="middle" dominant-baseline="middle" fill="#1e293b">C2</text>
<line x1="230" y1="100" x2="325" y2="100" stroke="#94a3b8" stroke-width="2" fill="none"/>
<circle cx="345" cy="100" r="20" fill="#FFD700" stroke="#DAA520" stroke-width="2"/>
<text x="345" y="100" font-family="monospace" font-size="12" font-weight="bold" text-anchor="middle" dominant-baseline="middle" fill="#1e293b">C3</text>
<line x1="365" y1="100" x2="460" y2="100" stroke="#94a3b8" stroke-width="2" fill="none"/>
<circle cx="480" cy="100" r="20" fill="#FFD700" stroke="#DAA520" stroke-width="2"/>
<text x="480" y="100" font-family="monospace" font-size="12" font-weight="bold" text-anchor="middle" dominant-baseline="middle" fill="#1e293b">C4</text>
<rect x="455.4" y="36" width="49.2" height="22" rx="4" fill="#0066CC"/>
<text x="480" y="51" font-family="-apple-system, BlinkMacSystemFont, 'Segoe UI', sans-serif" font-size="12" font-weight="600" text-anchor="middle" fill="white">main</text>
<line x1="480" y1="58" x2="480" y2="70" stroke="#0066CC" stroke-width="1.5"/>
<polygon points="475,70 485,70 480,82" fill="#0066CC"/>
<line x1="0" y1="162" x2="700" y2="162" stroke="#e2e8f0" stroke-width="1.5" stroke-dasharray="5,4"/>
<text x="12" y="182" font-family="-apple-system, BlinkMacSystemFont, 'Segoe UI', sans-serif" font-size="12" font-weight="600" fill="#94a3b8">After  (git commit --amend)</text>
<line x1="95" y1="230" x2="190" y2="230" stroke="#94a3b8" stroke-width="2" fill="none"/>
<line x1="230" y1="230" x2="325" y2="230" stroke="#94a3b8" stroke-width="2" fill="none"/>
<line x1="365" y1="230" x2="460" y2="230" stroke="#94a3b8" stroke-width="2" fill="none"/>
<circle cx="75" cy="230" r="20" fill="#FFD700" stroke="#DAA520" stroke-width="2"/>
<text x="75" y="230" font-family="monospace" font-size="12" font-weight="bold" text-anchor="middle" dominant-baseline="middle" fill="#1e293b">C1</text>
<circle cx="210" cy="230" r="20" fill="#FFD700" stroke="#DAA520" stroke-width="2"/>
<text x="210" y="230" font-family="monospace" font-size="12" font-weight="bold" text-anchor="middle" dominant-baseline="middle" fill="#1e293b">C2</text>
<circle cx="345" cy="230" r="20" fill="#FFD700" stroke="#DAA520" stroke-width="2"/>
<text x="345" y="230" font-family="monospace" font-size="12" font-weight="bold" text-anchor="middle" dominant-baseline="middle" fill="#1e293b">C3</text>
<circle cx="480" cy="230" r="20" fill="#9333EA" stroke="#7E22CE" stroke-width="2"/>
<text x="480" y="230" font-family="monospace" font-size="12" font-weight="bold" text-anchor="middle" dominant-baseline="middle" fill="white">C4'</text>
<rect x="455.4" y="166" width="49.2" height="22" rx="4" fill="#0066CC"/>
<text x="480" y="181" font-family="-apple-system, BlinkMacSystemFont, 'Segoe UI', sans-serif" font-size="12" font-weight="600" text-anchor="middle" fill="white">main</text>
<line x1="480" y1="188" x2="480" y2="200" stroke="#0066CC" stroke-width="1.5"/>
<polygon points="475,200 485,200 480,212" fill="#0066CC"/>
<circle cx="590" cy="230" r="20" fill="#e2e8f0" stroke="#94a3b8" stroke-width="2"/>
<text x="590" y="230" font-family="monospace" font-size="12" font-weight="bold" text-anchor="middle" dominant-baseline="middle" fill="#94a3b8">C4</text>
<text x="567" y="272" font-family="-apple-system, BlinkMacSystemFont, 'Segoe UI', sans-serif" font-size="10" fill="#94a3b8" text-anchor="middle">(old C4)</text>
<text x="350" y="298" font-family="-apple-system, BlinkMacSystemFont, 'Segoe UI', sans-serif" font-size="11" fill="#64748b" text-anchor="middle">C4' has a new hash; old C4 becomes unreferenced (recoverable via reflog)</text>
</svg>
