<svg viewBox="0 0 900 280" xmlns="http://www.w3.org/2000/svg">
  <defs>
    <style>
      .commit-circle { fill: #FFD700; stroke: #DAA520; stroke-width: 2; }
      .commit-new { fill: #9D4EDD; stroke: #7A3FB0; stroke-width: 2; }
      .commit-faded { fill: #FFD700; stroke: #DAA520; stroke-width: 2; opacity: 0.4; }
      .commit-text { font-family: monospace; font-size: 12px; text-anchor: middle; dominant-baseline: middle; font-weight: bold; }
      .commit-text-light { fill: white; }
      .branch-label { font-family: -apple-system, BlinkMacSystemFont, 'Segoe UI', sans-serif; font-size: 13px; font-weight: 600; }
      .branch-main { fill: #0066CC; }
      .arrow-main { stroke: #0066CC; stroke-width: 2.5; fill: none; }
      .arrow-amended { stroke: #9D4EDD; stroke-width: 2.5; fill: none; }
      .label-bg { opacity: 0.15; }
      .section-title { font-size: 14px; font-weight: bold; font-family: sans-serif; }
      .label-text { font-size: 11px; fill: #666; font-family: sans-serif; }
    </style>
    <marker id="arrowhead-main" markerWidth="10" markerHeight="10" refX="9" refY="3" orient="auto">
      <polygon points="0 0, 10 3, 0 6" fill="#0066CC" />
    </marker>
    <marker id="arrowhead-amended" markerWidth="10" markerHeight="10" refX="9" refY="3" orient="auto">
      <polygon points="0 0, 10 3, 0 6" fill="#9D4EDD" />
    </marker>
  </defs>

  <!-- Title -->
  <text x="450" y="20" style="font-size: 16px; font-weight: bold; text-anchor: center; font-family: sans-serif;">Amending the Last Commit</text>

  <!-- BEFORE section -->
  <text x="50" y="55" class="section-title">BEFORE: git commit --amend</text>

  <circle cx="80" cy="100" r="16" class="commit-circle"/>
  <text x="80" y="100" class="commit-text">C1</text>

  <circle cx="160" cy="100" r="16" class="commit-circle"/>
  <text x="160" y="100" class="commit-text">C2</text>

  <circle cx="240" cy="100" r="16" class="commit-circle"/>
  <text x="240" y="100" class="commit-text">C3</text>

  <circle cx="320" cy="100" r="16" class="commit-circle"/>
  <text x="320" y="100" class="commit-text">C4</text>

  <!-- Arrows -->
  <path d="M 96 100 L 144 100" class="arrow-main" marker-end="url(#arrowhead-main)"/>
  <path d="M 176 100 L 224 100" class="arrow-main" marker-end="url(#arrowhead-main)"/>
  <path d="M 256 100 L 304 100" class="arrow-main" marker-end="url(#arrowhead-main)"/>

  <!-- Branch label -->
  <rect x="330" y="125" width="60" height="22" rx="3" class="branch-main label-bg"/>
  <text x="360" y="140" text-anchor="middle" class="branch-label branch-main">main</text>

  <!-- AFTER section -->
  <text x="50" y="190" class="section-title">AFTER: C4 replaced with C4' (new hash)</text>

  <circle cx="80" cy="235" r="16" class="commit-circle"/>
  <text x="80" y="235" class="commit-text">C1</text>

  <circle cx="160" cy="235" r="16" class="commit-circle"/>
  <text x="160" y="235" class="commit-text">C2</text>

  <circle cx="240" cy="235" r="16" class="commit-circle"/>
  <text x="240" y="235" class="commit-text">C3</text>

  <circle cx="320" cy="235" r="16" class="commit-new"/>
  <text x="320" y="235" class="commit-text commit-text-light">C4'</text>

  <!-- Old C4 faded -->
  <circle cx="320" cy="100" r="16" class="commit-faded"/>
  <text x="320" y="100" class="commit-text" style="opacity: 0.4;">C4</text>

  <!-- Arrows -->
  <path d="M 96 235 L 144 235" class="arrow-main" marker-end="url(#arrowhead-main)"/>
  <path d="M 176 235 L 224 235" class="arrow-main" marker-end="url(#arrowhead-main)"/>
  <path d="M 256 235 L 304 235" class="arrow-amended" marker-end="url(#arrowhead-amended)"/>

  <!-- Branch label -->
  <rect x="330" y="260" width="60" height="22" rx="3" class="branch-main label-bg"/>
  <text x="360" y="275" text-anchor="middle" class="branch-label branch-main">main</text>

  <!-- Annotation -->
  <text x="550" y="235" class="label-text">Old C4 replaced (if not yet pushed)</text>
</svg>