<svg viewBox="0 0 700 208" xmlns="http://www.w3.org/2000/svg">
<text x="350" y="24" font-family="-apple-system, BlinkMacSystemFont, 'Segoe UI', sans-serif" font-size="15" font-weight="bold" text-anchor="middle" fill="#1e293b">Creating a Branch</text>
<circle cx="90" cy="130" r="20" fill="#FFD700" stroke="#DAA520" stroke-width="2"/>
<text x="90" y="130" font-family="monospace" font-size="12" font-weight="bold" text-anchor="middle" dominant-baseline="middle" fill="#1e293b">C1</text>
<line x1="110" y1="130" x2="220" y2="130" stroke="#94a3b8" stroke-width="2" fill="none"/>
<circle cx="240" cy="130" r="20" fill="#FFD700" stroke="#DAA520" stroke-width="2"/>
<text x="240" y="130" font-family="monospace" font-size="12" font-weight="bold" text-anchor="middle" dominant-baseline="middle" fill="#1e293b">C2</text>
<line x1="260" y1="130" x2="370" y2="130" stroke="#94a3b8" stroke-width="2" fill="none"/>
<circle cx="390" cy="130" r="20" fill="#FFD700" stroke="#DAA520" stroke-width="2"/>
<text x="390" y="130" font-family="monospace" font-size="12" font-weight="bold" text-anchor="middle" dominant-baseline="middle" fill="#1e293b">C3</text>
<rect x="338.1" y="66" width="103.8" height="22" rx="4" fill="#22C55E"/>
<text x="390" y="81" font-family="-apple-system, BlinkMacSystemFont, 'Segoe UI', sans-serif" font-size="12" font-weight="600" text-anchor="middle" fill="white">feature/new</text>
<line x1="390" y1="88" x2="390" y2="100" stroke="#22C55E" stroke-width="1.5"/>
<polygon points="385,100 395,100 390,112" fill="#22C55E"/>
<rect x="365.4" y="36" width="49.2" height="22" rx="4" fill="#0066CC"/>
<text x="390" y="51" font-family="-apple-system, BlinkMacSystemFont, 'Segoe UI', sans-serif" font-size="12" font-weight="600" text-anchor="middle" fill="white">main</text>
<line x1="390" y1="58" x2="390" y2="100" stroke="#0066CC" stroke-width="1.5"/>
<polygon points="385,100 395,100 390,112" fill="#0066CC"/>
<text x="350" y="172" font-family="-apple-system, BlinkMacSystemFont, 'Segoe UI', sans-serif" font-size="11" fill="#64748b" text-anchor="middle">Both labels point to C3 — a branch is just a pointer to a commit</text>
</svg>
