<svg viewBox="0 0 700 185" xmlns="http://www.w3.org/2000/svg">
<text x="350" y="22" font-family="-apple-system, BlinkMacSystemFont, 'Segoe UI', sans-serif" font-size="15" font-weight="bold" text-anchor="middle" fill="#1e293b">Creating a Branch</text>
<circle cx="90" cy="120" r="20" fill="#FFD700" stroke="#DAA520" stroke-width="2" opacity="1"/>
<text x="90" y="120" font-family="monospace" font-size="12" font-weight="bold" text-anchor="middle" dominant-baseline="middle" fill="#1e293b" opacity="1">C1</text>
<line x1="110" y1="120" x2="220" y2="120" stroke="#94a3b8" stroke-width="2" fill="none"/>
<circle cx="240" cy="120" r="20" fill="#FFD700" stroke="#DAA520" stroke-width="2" opacity="1"/>
<text x="240" y="120" font-family="monospace" font-size="12" font-weight="bold" text-anchor="middle" dominant-baseline="middle" fill="#1e293b" opacity="1">C2</text>
<line x1="260" y1="120" x2="370" y2="120" stroke="#94a3b8" stroke-width="2" fill="none"/>
<circle cx="390" cy="120" r="20" fill="#FFD700" stroke="#DAA520" stroke-width="2" opacity="1"/>
<text x="390" y="120" font-family="monospace" font-size="12" font-weight="bold" text-anchor="middle" dominant-baseline="middle" fill="#1e293b" opacity="1">C3</text>
<rect x="338.1" y="60.0" width="103.8" height="22" rx="4" fill="#22C55E"/>
<text x="390" y="75.0" font-family="-apple-system, BlinkMacSystemFont, 'Segoe UI', sans-serif" font-size="12" font-weight="600" text-anchor="middle" fill="white">feature/new</text>
<line x1="390" y1="82" x2="390" y2="92.0" stroke="#22C55E" stroke-width="1.5"/>
<polygon points="385,92.0 395,92.0 390,102.0" fill="#22C55E"/>
<rect x="365.4" y="32.0" width="49.2" height="22" rx="4" fill="#0066CC"/>
<text x="390" y="47.0" font-family="-apple-system, BlinkMacSystemFont, 'Segoe UI', sans-serif" font-size="12" font-weight="600" text-anchor="middle" fill="white">main</text>
<line x1="390" y1="54" x2="390" y2="92.0" stroke="#0066CC" stroke-width="1.5"/>
<polygon points="385,92.0 395,92.0 390,102.0" fill="#0066CC"/>
<text x="350" y="178" font-family="-apple-system, BlinkMacSystemFont, 'Segoe UI', sans-serif" font-size="11" fill="#64748b" text-anchor="middle">Both labels point to C3 — a branch is just a pointer to a commit</text>
</svg>
