<svg viewBox="0 0 700 317" xmlns="http://www.w3.org/2000/svg">
<text x="350" y="24" font-family="-apple-system, BlinkMacSystemFont, 'Segoe UI', sans-serif" font-size="15" font-weight="bold" text-anchor="middle" fill="#1e293b">Cherry-Pick</text>
<circle cx="65" cy="85" r="20" fill="#FFD700" stroke="#DAA520" stroke-width="2"/>
<text x="65" y="85" font-family="monospace" font-size="12" font-weight="bold" text-anchor="middle" dominant-baseline="middle" fill="#1e293b">C1</text>
<line x1="85" y1="85" x2="160" y2="85" stroke="#94a3b8" stroke-width="2" fill="none"/>
<circle cx="180" cy="85" r="20" fill="#FFD700" stroke="#DAA520" stroke-width="2"/>
<text x="180" y="85" font-family="monospace" font-size="12" font-weight="bold" text-anchor="middle" dominant-baseline="middle" fill="#1e293b">C2</text>
<line x1="200" y1="85" x2="275" y2="85" stroke="#94a3b8" stroke-width="2" fill="none"/>
<circle cx="295" cy="85" r="20" fill="#FFD700" stroke="#DAA520" stroke-width="2"/>
<text x="295" y="85" font-family="monospace" font-size="12" font-weight="bold" text-anchor="middle" dominant-baseline="middle" fill="#1e293b">C3</text>
<line x1="315" y1="85" x2="410" y2="85" stroke="#94a3b8" stroke-width="2" fill="none"/>
<circle cx="430" cy="85" r="20" fill="#06B6D4" stroke="#0891B2" stroke-width="2"/>
<text x="430" y="85" font-family="monospace" font-size="12" font-weight="bold" text-anchor="middle" dominant-baseline="middle" fill="white">C4'</text>
<rect x="405.4" y="21" width="49.2" height="22" rx="4" fill="#0066CC"/>
<text x="430" y="36" font-family="-apple-system, BlinkMacSystemFont, 'Segoe UI', sans-serif" font-size="12" font-weight="600" text-anchor="middle" fill="white">main</text>
<line x1="430" y1="43" x2="430" y2="55" stroke="#0066CC" stroke-width="1.5"/>
<polygon points="425,55 435,55 430,67" fill="#0066CC"/>
<line x1="300.3" y1="104.3" x2="319.7" y2="175.7" stroke="#94a3b8" stroke-width="2" fill="none"/>
<line x1="345" y1="195" x2="425" y2="195" stroke="#94a3b8" stroke-width="2" fill="none"/>
<line x1="465" y1="195" x2="545" y2="195" stroke="#94a3b8" stroke-width="2" fill="none"/>
<circle cx="325" cy="195" r="20" fill="#FFD700" stroke="#DAA520" stroke-width="2"/>
<text x="325" y="195" font-family="monospace" font-size="12" font-weight="bold" text-anchor="middle" dominant-baseline="middle" fill="#1e293b">C4</text>
<circle cx="445" cy="195" r="20" fill="#FFD700" stroke="#DAA520" stroke-width="2"/>
<text x="445" y="195" font-family="monospace" font-size="12" font-weight="bold" text-anchor="middle" dominant-baseline="middle" fill="#1e293b">C5</text>
<circle cx="565" cy="195" r="20" fill="#FFD700" stroke="#DAA520" stroke-width="2"/>
<text x="565" y="195" font-family="monospace" font-size="12" font-weight="bold" text-anchor="middle" dominant-baseline="middle" fill="#1e293b">C6</text>
<rect x="528.7" y="237" width="72.6" height="22" rx="4" fill="#22C55E"/>
<text x="565" y="252" font-family="-apple-system, BlinkMacSystemFont, 'Segoe UI', sans-serif" font-size="12" font-weight="600" text-anchor="middle" fill="white">feature</text>
<line x1="565" y1="225" x2="565" y2="237" stroke="#22C55E" stroke-width="1.5"/>
<polygon points="560,225 570,225 565,213" fill="#22C55E"/>
<defs><marker id="cp-arrow" markerWidth="8" markerHeight="8" refX="7" refY="2.5" orient="auto"><polygon points="0 0,8 2.5,0 5" fill="#06B6D4"/></marker></defs>
<path d="M 325 175 C 325 140 430 140 430 105" stroke="#06B6D4" stroke-width="1.5" stroke-dasharray="5,3" fill="none" marker-end="url(#cp-arrow)"/>
<text x="350" y="281" font-family="-apple-system, BlinkMacSystemFont, 'Segoe UI', sans-serif" font-size="11" fill="#64748b" text-anchor="middle">C4 is copied as C4' onto main (same changes, new hash)</text>
</svg>
