<svg viewBox="0 0 700 240" xmlns="http://www.w3.org/2000/svg">
<text x="350" y="22" font-family="-apple-system, BlinkMacSystemFont, 'Segoe UI', sans-serif" font-size="15" font-weight="bold" text-anchor="middle" fill="#1e293b">Cherry-Pick</text>
<circle cx="70" cy="80" r="20" fill="#FFD700" stroke="#DAA520" stroke-width="2" opacity="1"/>
<text x="70" y="80" font-family="monospace" font-size="12" font-weight="bold" text-anchor="middle" dominant-baseline="middle" fill="#1e293b" opacity="1">C1</text>
<line x1="90" y1="80" x2="165" y2="80" stroke="#94a3b8" stroke-width="2" fill="none"/>
<circle cx="185" cy="80" r="20" fill="#FFD700" stroke="#DAA520" stroke-width="2" opacity="1"/>
<text x="185" y="80" font-family="monospace" font-size="12" font-weight="bold" text-anchor="middle" dominant-baseline="middle" fill="#1e293b" opacity="1">C2</text>
<line x1="205" y1="80" x2="280" y2="80" stroke="#94a3b8" stroke-width="2" fill="none"/>
<circle cx="300" cy="80" r="20" fill="#FFD700" stroke="#DAA520" stroke-width="2" opacity="1"/>
<text x="300" y="80" font-family="monospace" font-size="12" font-weight="bold" text-anchor="middle" dominant-baseline="middle" fill="#1e293b" opacity="1">C3</text>
<line x1="320" y1="80" x2="410" y2="80" stroke="#94a3b8" stroke-width="2" fill="none"/>
<circle cx="430" cy="80" r="20" fill="#06B6D4" stroke="#0891B2" stroke-width="2" opacity="1"/>
<text x="430" y="80" font-family="monospace" font-size="12" font-weight="bold" text-anchor="middle" dominant-baseline="middle" fill="white" opacity="1">C4'</text>
<rect x="405.4" y="20.0" width="49.2" height="22" rx="4" fill="#0066CC"/>
<text x="430" y="35.0" font-family="-apple-system, BlinkMacSystemFont, 'Segoe UI', sans-serif" font-size="12" font-weight="600" text-anchor="middle" fill="white">main</text>
<line x1="430" y1="42" x2="430" y2="52.0" stroke="#0066CC" stroke-width="1.5"/>
<polygon points="425,52.0 435,52.0 430,62.0" fill="#0066CC"/>
<line x1="305.7" y1="99.2" x2="324.3" y2="160.8" stroke="#94a3b8" stroke-width="2" fill="none"/>
<line x1="350" y1="180" x2="430" y2="180" stroke="#94a3b8" stroke-width="2" fill="none"/>
<line x1="470" y1="180" x2="550" y2="180" stroke="#94a3b8" stroke-width="2" fill="none"/>
<circle cx="330" cy="180" r="20" fill="#FFD700" stroke="#DAA520" stroke-width="2" opacity="1"/>
<text x="330" y="180" font-family="monospace" font-size="12" font-weight="bold" text-anchor="middle" dominant-baseline="middle" fill="#1e293b" opacity="1">C4</text>
<circle cx="450" cy="180" r="20" fill="#FFD700" stroke="#DAA520" stroke-width="2" opacity="1"/>
<text x="450" y="180" font-family="monospace" font-size="12" font-weight="bold" text-anchor="middle" dominant-baseline="middle" fill="#1e293b" opacity="1">C5</text>
<circle cx="570" cy="180" r="20" fill="#FFD700" stroke="#DAA520" stroke-width="2" opacity="1"/>
<text x="570" y="180" font-family="monospace" font-size="12" font-weight="bold" text-anchor="middle" dominant-baseline="middle" fill="#1e293b" opacity="1">C6</text>
<rect x="533.7" y="218" width="72.6" height="22" rx="4" fill="#22C55E"/>
<text x="570" y="233" font-family="-apple-system, BlinkMacSystemFont, 'Segoe UI', sans-serif" font-size="12" font-weight="600" text-anchor="middle" fill="white">feature</text>
<line x1="570" y1="208" x2="570" y2="218" stroke="#22C55E" stroke-width="1.5"/>
<polygon points="565,208 575,208 570,198" fill="#22C55E"/>
<defs><marker id="cp-arrow" markerWidth="8" markerHeight="8" refX="7" refY="2.5" orient="auto"><polygon points="0 0,8 2.5,0 5" fill="#06B6D4"/></marker></defs>
<path d="M 330 160 C 330 130 430 130 430 100" stroke="#06B6D4" stroke-width="1.5" stroke-dasharray="5,3" fill="none" marker-end="url(#cp-arrow)"/>
<text x="350" y="233" font-family="-apple-system, BlinkMacSystemFont, 'Segoe UI', sans-serif" font-size="11" fill="#64748b" text-anchor="middle">C4 is copied as C4' onto main (same changes, new hash)</text>
</svg>
