<svg viewBox="0 0 700 285" xmlns="http://www.w3.org/2000/svg">
<text x="350" y="22" font-family="-apple-system, BlinkMacSystemFont, 'Segoe UI', sans-serif" font-size="15" font-weight="bold" text-anchor="middle" fill="#1e293b">Merging (Fast-Forward)</text>
<text x="12" y="45" font-family="-apple-system, BlinkMacSystemFont, 'Segoe UI', sans-serif" font-size="12" font-weight="600" fill="#94a3b8">Before</text>
<line x1="0" y1="155" x2="700" y2="155" stroke="#e2e8f0" stroke-width="1.5" stroke-dasharray="5,4"/>
<text x="12" y="175" font-family="-apple-system, BlinkMacSystemFont, 'Segoe UI', sans-serif" font-size="12" font-weight="600" fill="#94a3b8">After</text>
<circle cx="70" cy="95" r="20" fill="#FFD700" stroke="#DAA520" stroke-width="2" opacity="1"/>
<text x="70" y="95" font-family="monospace" font-size="12" font-weight="bold" text-anchor="middle" dominant-baseline="middle" fill="#1e293b" opacity="1">C1</text>
<line x1="90" y1="95" x2="165" y2="95" stroke="#94a3b8" stroke-width="2" fill="none"/>
<circle cx="185" cy="95" r="20" fill="#FFD700" stroke="#DAA520" stroke-width="2" opacity="1"/>
<text x="185" y="95" font-family="monospace" font-size="12" font-weight="bold" text-anchor="middle" dominant-baseline="middle" fill="#1e293b" opacity="1">C2</text>
<line x1="205" y1="95" x2="280" y2="95" stroke="#94a3b8" stroke-width="2" fill="none"/>
<circle cx="300" cy="95" r="20" fill="#FFD700" stroke="#DAA520" stroke-width="2" opacity="1"/>
<text x="300" y="95" font-family="monospace" font-size="12" font-weight="bold" text-anchor="middle" dominant-baseline="middle" fill="#1e293b" opacity="1">C3</text>
<line x1="320" y1="95" x2="395" y2="95" stroke="#94a3b8" stroke-width="2" fill="none"/>
<circle cx="415" cy="95" r="20" fill="#FFD700" stroke="#DAA520" stroke-width="2" opacity="1"/>
<text x="415" y="95" font-family="monospace" font-size="12" font-weight="bold" text-anchor="middle" dominant-baseline="middle" fill="#1e293b" opacity="1">C4</text>
<line x1="435" y1="95" x2="510" y2="95" stroke="#94a3b8" stroke-width="2" fill="none"/>
<circle cx="530" cy="95" r="20" fill="#FFD700" stroke="#DAA520" stroke-width="2" opacity="1"/>
<text x="530" y="95" font-family="monospace" font-size="12" font-weight="bold" text-anchor="middle" dominant-baseline="middle" fill="#1e293b" opacity="1">C5</text>
<rect x="275.4" y="35.0" width="49.2" height="22" rx="4" fill="#0066CC"/>
<text x="300" y="50.0" font-family="-apple-system, BlinkMacSystemFont, 'Segoe UI', sans-serif" font-size="12" font-weight="600" text-anchor="middle" fill="white">main</text>
<line x1="300" y1="57" x2="300" y2="67.0" stroke="#0066CC" stroke-width="1.5"/>
<polygon points="295,67.0 305,67.0 300,77.0" fill="#0066CC"/>
<rect x="493.7" y="35.0" width="72.6" height="22" rx="4" fill="#22C55E"/>
<text x="530" y="50.0" font-family="-apple-system, BlinkMacSystemFont, 'Segoe UI', sans-serif" font-size="12" font-weight="600" text-anchor="middle" fill="white">feature</text>
<line x1="530" y1="57" x2="530" y2="67.0" stroke="#22C55E" stroke-width="1.5"/>
<polygon points="525,67.0 535,67.0 530,77.0" fill="#22C55E"/>
<circle cx="70" cy="215" r="20" fill="#FFD700" stroke="#DAA520" stroke-width="2" opacity="1"/>
<text x="70" y="215" font-family="monospace" font-size="12" font-weight="bold" text-anchor="middle" dominant-baseline="middle" fill="#1e293b" opacity="1">C1</text>
<line x1="90" y1="215" x2="165" y2="215" stroke="#94a3b8" stroke-width="2" fill="none"/>
<circle cx="185" cy="215" r="20" fill="#FFD700" stroke="#DAA520" stroke-width="2" opacity="1"/>
<text x="185" y="215" font-family="monospace" font-size="12" font-weight="bold" text-anchor="middle" dominant-baseline="middle" fill="#1e293b" opacity="1">C2</text>
<line x1="205" y1="215" x2="280" y2="215" stroke="#94a3b8" stroke-width="2" fill="none"/>
<circle cx="300" cy="215" r="20" fill="#FFD700" stroke="#DAA520" stroke-width="2" opacity="1"/>
<text x="300" y="215" font-family="monospace" font-size="12" font-weight="bold" text-anchor="middle" dominant-baseline="middle" fill="#1e293b" opacity="1">C3</text>
<line x1="320" y1="215" x2="395" y2="215" stroke="#94a3b8" stroke-width="2" fill="none"/>
<circle cx="415" cy="215" r="20" fill="#FFD700" stroke="#DAA520" stroke-width="2" opacity="1"/>
<text x="415" y="215" font-family="monospace" font-size="12" font-weight="bold" text-anchor="middle" dominant-baseline="middle" fill="#1e293b" opacity="1">C4</text>
<line x1="435" y1="215" x2="510" y2="215" stroke="#94a3b8" stroke-width="2" fill="none"/>
<circle cx="530" cy="215" r="20" fill="#FFD700" stroke="#DAA520" stroke-width="2" opacity="1"/>
<text x="530" y="215" font-family="monospace" font-size="12" font-weight="bold" text-anchor="middle" dominant-baseline="middle" fill="#1e293b" opacity="1">C5</text>
<rect x="505.4" y="155.0" width="49.2" height="22" rx="4" fill="#0066CC"/>
<text x="530" y="170.0" font-family="-apple-system, BlinkMacSystemFont, 'Segoe UI', sans-serif" font-size="12" font-weight="600" text-anchor="middle" fill="white">main</text>
<line x1="530" y1="177" x2="530" y2="187.0" stroke="#0066CC" stroke-width="1.5"/>
<polygon points="525,187.0 535,187.0 530,197.0" fill="#0066CC"/>
<rect x="493.7" y="127.0" width="72.6" height="22" rx="4" fill="#22C55E"/>
<text x="530" y="142.0" font-family="-apple-system, BlinkMacSystemFont, 'Segoe UI', sans-serif" font-size="12" font-weight="600" text-anchor="middle" fill="white">feature</text>
<line x1="530" y1="149" x2="530" y2="187.0" stroke="#22C55E" stroke-width="1.5"/>
<polygon points="525,187.0 535,187.0 530,197.0" fill="#22C55E"/>
<text x="350" y="277" font-family="-apple-system, BlinkMacSystemFont, 'Segoe UI', sans-serif" font-size="11" fill="#64748b" text-anchor="middle">main pointer moves forward to C5 — no new commit</text>
</svg>
