<svg viewBox="0 0 700 307" xmlns="http://www.w3.org/2000/svg">
<text x="350" y="24" font-family="-apple-system, BlinkMacSystemFont, 'Segoe UI', sans-serif" font-size="15" font-weight="bold" text-anchor="middle" fill="#1e293b">Merging (Non-Fast-Forward)</text>
<line x1="95" y1="80" x2="160" y2="80" stroke="#94a3b8" stroke-width="2" fill="none"/>
<line x1="200" y1="80" x2="265" y2="80" stroke="#94a3b8" stroke-width="2" fill="none"/>
<line x1="305" y1="80" x2="390" y2="80" stroke="#94a3b8" stroke-width="2" fill="none"/>
<line x1="430" y1="80" x2="535" y2="80" stroke="#94a3b8" stroke-width="2" fill="none"/>
<line x1="292.1" y1="98.7" x2="317.9" y2="166.3" stroke="#94a3b8" stroke-width="2" fill="none"/>
<line x1="345" y1="185" x2="450" y2="185" stroke="#94a3b8" stroke-width="2" fill="none"/>
<line x1="482.6" y1="169.5" x2="542.4" y2="95.5" stroke="#94a3b8" stroke-width="2" fill="none"/>
<circle cx="75" cy="80" r="20" fill="#FFD700" stroke="#DAA520" stroke-width="2"/>
<text x="75" y="80" font-family="monospace" font-size="12" font-weight="bold" text-anchor="middle" dominant-baseline="middle" fill="#1e293b">C1</text>
<circle cx="180" cy="80" r="20" fill="#FFD700" stroke="#DAA520" stroke-width="2"/>
<text x="180" y="80" font-family="monospace" font-size="12" font-weight="bold" text-anchor="middle" dominant-baseline="middle" fill="#1e293b">C2</text>
<circle cx="285" cy="80" r="20" fill="#FFD700" stroke="#DAA520" stroke-width="2"/>
<text x="285" y="80" font-family="monospace" font-size="12" font-weight="bold" text-anchor="middle" dominant-baseline="middle" fill="#1e293b">C3</text>
<circle cx="410" cy="80" r="20" fill="#FFD700" stroke="#DAA520" stroke-width="2"/>
<text x="410" y="80" font-family="monospace" font-size="12" font-weight="bold" text-anchor="middle" dominant-baseline="middle" fill="#1e293b">C6</text>
<circle cx="555" cy="80" r="20" fill="#EF4444" stroke="#B91C1C" stroke-width="2"/>
<text x="555" y="80" font-family="monospace" font-size="12" font-weight="bold" text-anchor="middle" dominant-baseline="middle" fill="white">M</text>
<circle cx="325" cy="185" r="20" fill="#FFD700" stroke="#DAA520" stroke-width="2"/>
<text x="325" y="185" font-family="monospace" font-size="12" font-weight="bold" text-anchor="middle" dominant-baseline="middle" fill="#1e293b">C4</text>
<circle cx="470" cy="185" r="20" fill="#FFD700" stroke="#DAA520" stroke-width="2"/>
<text x="470" y="185" font-family="monospace" font-size="12" font-weight="bold" text-anchor="middle" dominant-baseline="middle" fill="#1e293b">C5</text>
<rect x="530.4" y="16" width="49.2" height="22" rx="4" fill="#0066CC"/>
<text x="555" y="31" font-family="-apple-system, BlinkMacSystemFont, 'Segoe UI', sans-serif" font-size="12" font-weight="600" text-anchor="middle" fill="white">main</text>
<line x1="555" y1="38" x2="555" y2="50" stroke="#0066CC" stroke-width="1.5"/>
<polygon points="550,50 560,50 555,62" fill="#0066CC"/>
<rect x="433.7" y="227" width="72.6" height="22" rx="4" fill="#22C55E"/>
<text x="470" y="242" font-family="-apple-system, BlinkMacSystemFont, 'Segoe UI', sans-serif" font-size="12" font-weight="600" text-anchor="middle" fill="white">feature</text>
<line x1="470" y1="215" x2="470" y2="227" stroke="#22C55E" stroke-width="1.5"/>
<polygon points="465,215 475,215 470,203" fill="#22C55E"/>
<text x="350" y="271" font-family="-apple-system, BlinkMacSystemFont, 'Segoe UI', sans-serif" font-size="11" fill="#64748b" text-anchor="middle">M has two parents: C6 (main) and C5 (feature)</text>
</svg>
