<svg viewBox="0 0 700 270" xmlns="http://www.w3.org/2000/svg">
<text x="350" y="22" font-family="-apple-system, BlinkMacSystemFont, 'Segoe UI', sans-serif" font-size="15" font-weight="bold" text-anchor="middle" fill="#1e293b">Merge Conflict</text>
<circle cx="80" cy="100" r="20" fill="#FFD700" stroke="#DAA520" stroke-width="2" opacity="1"/>
<text x="80" y="100" font-family="monospace" font-size="12" font-weight="bold" text-anchor="middle" dominant-baseline="middle" fill="#1e293b" opacity="1">C1</text>
<line x1="100" y1="100" x2="175" y2="100" stroke="#94a3b8" stroke-width="2" fill="none"/>
<circle cx="195" cy="100" r="20" fill="#FFD700" stroke="#DAA520" stroke-width="2" opacity="1"/>
<text x="195" y="100" font-family="monospace" font-size="12" font-weight="bold" text-anchor="middle" dominant-baseline="middle" fill="#1e293b" opacity="1">C2</text>
<line x1="215" y1="100" x2="295" y2="100" stroke="#94a3b8" stroke-width="2" fill="none"/>
<circle cx="315" cy="100" r="20" fill="#FFD700" stroke="#DAA520" stroke-width="2" opacity="1"/>
<text x="315" y="100" font-family="monospace" font-size="12" font-weight="bold" text-anchor="middle" dominant-baseline="middle" fill="#1e293b" opacity="1">C3</text>
<line x1="335" y1="100" x2="415" y2="100" stroke="#94a3b8" stroke-width="2" fill="none"/>
<circle cx="435" cy="100" r="20" fill="#FFD700" stroke="#DAA520" stroke-width="2" opacity="1"/>
<text x="435" y="100" font-family="monospace" font-size="12" font-weight="bold" text-anchor="middle" dominant-baseline="middle" fill="#1e293b" opacity="1">C4</text>
<rect x="410.4" y="40.0" width="49.2" height="22" rx="4" fill="#0066CC"/>
<text x="435" y="55.0" font-family="-apple-system, BlinkMacSystemFont, 'Segoe UI', sans-serif" font-size="12" font-weight="600" text-anchor="middle" fill="white">main</text>
<line x1="435" y1="62" x2="435" y2="72.0" stroke="#0066CC" stroke-width="1.5"/>
<polygon points="430,72.0 440,72.0 435,82.0" fill="#0066CC"/>
<line x1="204.9" y1="117.4" x2="245.1" y2="187.6" stroke="#94a3b8" stroke-width="2" fill="none"/>
<line x1="275" y1="205" x2="355" y2="205" stroke="#94a3b8" stroke-width="2" fill="none"/>
<circle cx="255" cy="205" r="20" fill="#FFD700" stroke="#DAA520" stroke-width="2" opacity="1"/>
<text x="255" y="205" font-family="monospace" font-size="12" font-weight="bold" text-anchor="middle" dominant-baseline="middle" fill="#1e293b" opacity="1">C5</text>
<circle cx="375" cy="205" r="20" fill="#FFD700" stroke="#DAA520" stroke-width="2" opacity="1"/>
<text x="375" y="205" font-family="monospace" font-size="12" font-weight="bold" text-anchor="middle" dominant-baseline="middle" fill="#1e293b" opacity="1">C6</text>
<rect x="338.7" y="243" width="72.6" height="22" rx="4" fill="#22C55E"/>
<text x="375" y="258" font-family="-apple-system, BlinkMacSystemFont, 'Segoe UI', sans-serif" font-size="12" font-weight="600" text-anchor="middle" fill="white">feature</text>
<line x1="375" y1="233" x2="375" y2="243" stroke="#22C55E" stroke-width="1.5"/>
<polygon points="370,233 380,233 375,223" fill="#22C55E"/>
<path d="M 435 120 C 435 152.5 375 152.5 375 185" stroke="#F59E0B" stroke-width="2" stroke-dasharray="5,3" fill="none"/>
<circle cx="405" cy="152.5" r="15" fill="#FEF3C7" stroke="#F59E0B" stroke-width="2"/>
<text x="405" y="157.5" font-family="-apple-system, BlinkMacSystemFont, 'Segoe UI', sans-serif" font-size="17" font-weight="bold" text-anchor="middle" fill="#D97706">!</text>
<text x="350" y="263" font-family="-apple-system, BlinkMacSystemFont, 'Segoe UI', sans-serif" font-size="11" fill="#64748b" text-anchor="middle">Both branches modified the same lines — resolve manually, then commit</text>
</svg>
