<svg viewBox="0 0 700 337" xmlns="http://www.w3.org/2000/svg">
<text x="350" y="24" font-family="-apple-system, BlinkMacSystemFont, 'Segoe UI', sans-serif" font-size="15" font-weight="bold" text-anchor="middle" fill="#1e293b">Merge Conflict</text>
<circle cx="75" cy="100" r="20" fill="#FFD700" stroke="#DAA520" stroke-width="2"/>
<text x="75" y="100" font-family="monospace" font-size="12" font-weight="bold" text-anchor="middle" dominant-baseline="middle" fill="#1e293b">C1</text>
<line x1="95" y1="100" x2="170" y2="100" stroke="#94a3b8" stroke-width="2" fill="none"/>
<circle cx="190" cy="100" r="20" fill="#FFD700" stroke="#DAA520" stroke-width="2"/>
<text x="190" y="100" font-family="monospace" font-size="12" font-weight="bold" text-anchor="middle" dominant-baseline="middle" fill="#1e293b">C2</text>
<line x1="210" y1="100" x2="290" y2="100" stroke="#94a3b8" stroke-width="2" fill="none"/>
<circle cx="310" cy="100" r="20" fill="#FFD700" stroke="#DAA520" stroke-width="2"/>
<text x="310" y="100" font-family="monospace" font-size="12" font-weight="bold" text-anchor="middle" dominant-baseline="middle" fill="#1e293b">C3</text>
<line x1="330" y1="100" x2="410" y2="100" stroke="#94a3b8" stroke-width="2" fill="none"/>
<circle cx="430" cy="100" r="20" fill="#FFD700" stroke="#DAA520" stroke-width="2"/>
<text x="430" y="100" font-family="monospace" font-size="12" font-weight="bold" text-anchor="middle" dominant-baseline="middle" fill="#1e293b">C4</text>
<rect x="405.4" y="36" width="49.2" height="22" rx="4" fill="#0066CC"/>
<text x="430" y="51" font-family="-apple-system, BlinkMacSystemFont, 'Segoe UI', sans-serif" font-size="12" font-weight="600" text-anchor="middle" fill="white">main</text>
<line x1="430" y1="58" x2="430" y2="70" stroke="#0066CC" stroke-width="1.5"/>
<polygon points="425,70 435,70 430,82" fill="#0066CC"/>
<line x1="199.3" y1="117.7" x2="240.7" y2="197.3" stroke="#94a3b8" stroke-width="2" fill="none"/>
<line x1="270" y1="215" x2="350" y2="215" stroke="#94a3b8" stroke-width="2" fill="none"/>
<circle cx="250" cy="215" r="20" fill="#FFD700" stroke="#DAA520" stroke-width="2"/>
<text x="250" y="215" font-family="monospace" font-size="12" font-weight="bold" text-anchor="middle" dominant-baseline="middle" fill="#1e293b">C5</text>
<circle cx="370" cy="215" r="20" fill="#FFD700" stroke="#DAA520" stroke-width="2"/>
<text x="370" y="215" font-family="monospace" font-size="12" font-weight="bold" text-anchor="middle" dominant-baseline="middle" fill="#1e293b">C6</text>
<rect x="333.7" y="257" width="72.6" height="22" rx="4" fill="#22C55E"/>
<text x="370" y="272" font-family="-apple-system, BlinkMacSystemFont, 'Segoe UI', sans-serif" font-size="12" font-weight="600" text-anchor="middle" fill="white">feature</text>
<line x1="370" y1="245" x2="370" y2="257" stroke="#22C55E" stroke-width="1.5"/>
<polygon points="365,245 375,245 370,233" fill="#22C55E"/>
<path d="M 430 120 C 430 157.5 370 157.5 370 195" stroke="#F59E0B" stroke-width="2" stroke-dasharray="5,3" fill="none"/>
<circle cx="400" cy="157.5" r="15" fill="#FEF3C7" stroke="#F59E0B" stroke-width="2"/>
<text x="400" y="163.5" font-family="-apple-system, BlinkMacSystemFont, 'Segoe UI', sans-serif" font-size="17" font-weight="bold" text-anchor="middle" fill="#D97706">!</text>
<text x="350" y="301" font-family="-apple-system, BlinkMacSystemFont, 'Segoe UI', sans-serif" font-size="11" fill="#64748b" text-anchor="middle">Both branches modified the same lines — resolve manually, then commit</text>
</svg>
