<svg viewBox="0 0 1000 300" xmlns="http://www.w3.org/2000/svg">
  <defs>
    <style>
      .commit-circle { fill: #FFD700; stroke: #DAA520; stroke-width: 2; }
      .merge-commit { fill: #FF6B6B; stroke: #CC5555; stroke-width: 2; }
      .conflict-commit { fill: #EF4444; stroke: #DC2626; stroke-width: 2; }
      .commit-text { font-family: monospace; font-size: 12px; text-anchor: middle; dominant-baseline: middle; font-weight: bold; }
      .commit-text-light { fill: white; }
      .branch-label { font-family: -apple-system, BlinkMacSystemFont, 'Segoe UI', sans-serif; font-size: 13px; font-weight: 600; }
      .branch-main { fill: #0066CC; }
      .branch-feature { fill: #22C55E; }
      .arrow-main { stroke: #0066CC; stroke-width: 2.5; fill: none; }
      .arrow-feature { stroke: #22C55E; stroke-width: 2.5; fill: none; }
      .arrow-merge { stroke: #FF6B6B; stroke-width: 2.5; fill: none; }
      .label-bg { opacity: 0.15; }
      .section-title { font-size: 14px; font-weight: bold; font-family: sans-serif; }
      .label-text { font-size: 11px; fill: #666; font-family: sans-serif; }
    </style>
    <marker id="arrowhead-main" markerWidth="10" markerHeight="10" refX="9" refY="3" orient="auto">
      <polygon points="0 0, 10 3, 0 6" fill="#0066CC" />
    </marker>
    <marker id="arrowhead-feature" markerWidth="10" markerHeight="10" refX="9" refY="3" orient="auto">
      <polygon points="0 0, 10 3, 0 6" fill="#22C55E" />
    </marker>
    <marker id="arrowhead-merge" markerWidth="10" markerHeight="10" refX="9" refY="3" orient="auto">
      <polygon points="0 0, 10 3, 0 6" fill="#FF6B6B" />
    </marker>
  </defs>

  <!-- Title -->
  <text x="500" y="20" style="font-size: 16px; font-weight: bold; text-anchor: center; font-family: sans-serif;">Merge Conflicts</text>

  <!-- BEFORE section -->
  <text x="50" y="55" class="section-title">BEFORE: Both branches modify styles.css</text>

  <circle cx="80" cy="100" r="16" class="commit-circle"/>
  <text x="80" y="100" class="commit-text">C1</text>

  <circle cx="160" cy="100" r="16" class="commit-circle"/>
  <text x="160" y="100" class="commit-text">C2</text>

  <circle cx="240" cy="100" r="16" class="commit-circle"/>
  <text x="240" y="100" class="commit-text">C3</text>

  <circle cx="320" cy="100" r="16" class="commit-circle"/>
  <text x="320" y="100" class="commit-text">C6</text>

  <circle cx="240" cy="160" r="16" class="commit-circle"/>
  <text x="240" y="160" class="commit-text">C4</text>

  <circle cx="320" cy="160" r="16" class="commit-circle"/>
  <text x="320" y="160" class="commit-text">C5</text>

  <!-- Arrows -->
  <path d="M 96 100 L 144 100" class="arrow-main" marker-end="url(#arrowhead-main)"/>
  <path d="M 176 100 L 224 100" class="arrow-main" marker-end="url(#arrowhead-main)"/>
  <path d="M 256 100 L 304 100" class="arrow-main" marker-end="url(#arrowhead-main)"/>
  <path d="M 256 160 L 304 160" class="arrow-feature" marker-end="url(#arrowhead-feature)"/>
  <path d="M 240 118 L 240 142" class="arrow-feature" marker-end="url(#arrowhead-feature)"/>

  <!-- Branch labels -->
  <rect x="340" y="80" width="60" height="22" rx="3" class="branch-main label-bg"/>
  <text x="370" y="95" text-anchor="middle" class="branch-label branch-main">main</text>

  <rect x="340" y="140" width="100" height="22" rx="3" class="branch-feature label-bg"/>
  <text x="390" y="155" text-anchor="middle" class="branch-label branch-feature">feature/auth</text>

  <!-- Annotation -->
  <text x="550" y="115" class="label-text">Both modified styles.css</text>

  <!-- AFTER section -->
  <text x="50" y="220" class="section-title">AFTER: Merge attempt fails with conflict</text>

  <circle cx="80" cy="265" r="16" class="commit-circle"/>
  <text x="80" y="265" class="commit-text">C1</text>

  <circle cx="160" cy="265" r="16" class="commit-circle"/>
  <text x="160" y="265" class="commit-text">C2</text>

  <circle cx="240" cy="265" r="16" class="commit-circle"/>
  <text x="240" y="265" class="commit-text">C3</text>

  <circle cx="320" cy="265" r="16" class="commit-circle"/>
  <text x="320" y="265" class="commit-text">C6</text>

  <circle cx="240" cy="325" r="16" class="commit-circle"/>
  <text x="240" y="325" class="commit-text">C4</text>

  <circle cx="320" cy="325" r="16" class="commit-circle"/>
  <text x="320" y="325" class="commit-text">C5</text>

  <!-- Conflict indicator -->
  <circle cx="380" cy="290" r="16" class="conflict-commit"/>
  <text x="380" y="290" class="commit-text commit-text-light">⚠</text>

  <!-- Arrows -->
  <path d="M 96 265 L 144 265" class="arrow-main" marker-end="url(#arrowhead-main)"/>
  <path d="M 176 265 L 224 265" class="arrow-main" marker-end="url(#arrowhead-main)"/>
  <path d="M 256 265 L 304 265" class="arrow-main" marker-end="url(#arrowhead-main)"/>
  <path d="M 256 325 L 304 325" class="arrow-feature" marker-end="url(#arrowhead-feature)"/>
  <path d="M 240 283 L 240 307" class="arrow-feature" marker-end="url(#arrowhead-feature)"/>

  <!-- Annotation -->
  <text x="550" y="290" class="label-text">CONFLICT! Must resolve manually</text>
</svg>