<svg viewBox="0 0 700 293" xmlns="http://www.w3.org/2000/svg">
<text x="350" y="24" font-family="-apple-system, BlinkMacSystemFont, 'Segoe UI', sans-serif" font-size="15" font-weight="bold" text-anchor="middle" fill="#1e293b">Merging (Fast-Forward)</text>
<text x="12" y="50" font-family="-apple-system, BlinkMacSystemFont, 'Segoe UI', sans-serif" font-size="12" font-weight="600" fill="#94a3b8">Before</text>
<circle cx="65" cy="100" r="20" fill="#FFD700" stroke="#DAA520" stroke-width="2"/>
<text x="65" y="100" font-family="monospace" font-size="12" font-weight="bold" text-anchor="middle" dominant-baseline="middle" fill="#1e293b">C1</text>
<line x1="85" y1="100" x2="155" y2="100" stroke="#94a3b8" stroke-width="2" fill="none"/>
<circle cx="175" cy="100" r="20" fill="#FFD700" stroke="#DAA520" stroke-width="2"/>
<text x="175" y="100" font-family="monospace" font-size="12" font-weight="bold" text-anchor="middle" dominant-baseline="middle" fill="#1e293b">C2</text>
<line x1="195" y1="100" x2="265" y2="100" stroke="#94a3b8" stroke-width="2" fill="none"/>
<circle cx="285" cy="100" r="20" fill="#FFD700" stroke="#DAA520" stroke-width="2"/>
<text x="285" y="100" font-family="monospace" font-size="12" font-weight="bold" text-anchor="middle" dominant-baseline="middle" fill="#1e293b">C3</text>
<line x1="305" y1="100" x2="375" y2="100" stroke="#94a3b8" stroke-width="2" fill="none"/>
<circle cx="395" cy="100" r="20" fill="#FFD700" stroke="#DAA520" stroke-width="2"/>
<text x="395" y="100" font-family="monospace" font-size="12" font-weight="bold" text-anchor="middle" dominant-baseline="middle" fill="#1e293b">C4</text>
<line x1="415" y1="100" x2="485" y2="100" stroke="#94a3b8" stroke-width="2" fill="none"/>
<circle cx="505" cy="100" r="20" fill="#FFD700" stroke="#DAA520" stroke-width="2"/>
<text x="505" y="100" font-family="monospace" font-size="12" font-weight="bold" text-anchor="middle" dominant-baseline="middle" fill="#1e293b">C5</text>
<rect x="260.4" y="36" width="49.2" height="22" rx="4" fill="#0066CC"/>
<text x="285" y="51" font-family="-apple-system, BlinkMacSystemFont, 'Segoe UI', sans-serif" font-size="12" font-weight="600" text-anchor="middle" fill="white">main</text>
<line x1="285" y1="58" x2="285" y2="70" stroke="#0066CC" stroke-width="1.5"/>
<polygon points="280,70 290,70 285,82" fill="#0066CC"/>
<rect x="468.7" y="36" width="72.6" height="22" rx="4" fill="#22C55E"/>
<text x="505" y="51" font-family="-apple-system, BlinkMacSystemFont, 'Segoe UI', sans-serif" font-size="12" font-weight="600" text-anchor="middle" fill="white">feature</text>
<line x1="505" y1="58" x2="505" y2="70" stroke="#22C55E" stroke-width="1.5"/>
<polygon points="500,70 510,70 505,82" fill="#22C55E"/>
<line x1="0" y1="160" x2="700" y2="160" stroke="#e2e8f0" stroke-width="1.5" stroke-dasharray="5,4"/>
<text x="12" y="178" font-family="-apple-system, BlinkMacSystemFont, 'Segoe UI', sans-serif" font-size="12" font-weight="600" fill="#94a3b8">After</text>
<circle cx="65" cy="215" r="20" fill="#FFD700" stroke="#DAA520" stroke-width="2"/>
<text x="65" y="215" font-family="monospace" font-size="12" font-weight="bold" text-anchor="middle" dominant-baseline="middle" fill="#1e293b">C1</text>
<line x1="85" y1="215" x2="155" y2="215" stroke="#94a3b8" stroke-width="2" fill="none"/>
<circle cx="175" cy="215" r="20" fill="#FFD700" stroke="#DAA520" stroke-width="2"/>
<text x="175" y="215" font-family="monospace" font-size="12" font-weight="bold" text-anchor="middle" dominant-baseline="middle" fill="#1e293b">C2</text>
<line x1="195" y1="215" x2="265" y2="215" stroke="#94a3b8" stroke-width="2" fill="none"/>
<circle cx="285" cy="215" r="20" fill="#FFD700" stroke="#DAA520" stroke-width="2"/>
<text x="285" y="215" font-family="monospace" font-size="12" font-weight="bold" text-anchor="middle" dominant-baseline="middle" fill="#1e293b">C3</text>
<line x1="305" y1="215" x2="375" y2="215" stroke="#94a3b8" stroke-width="2" fill="none"/>
<circle cx="395" cy="215" r="20" fill="#FFD700" stroke="#DAA520" stroke-width="2"/>
<text x="395" y="215" font-family="monospace" font-size="12" font-weight="bold" text-anchor="middle" dominant-baseline="middle" fill="#1e293b">C4</text>
<line x1="415" y1="215" x2="485" y2="215" stroke="#94a3b8" stroke-width="2" fill="none"/>
<circle cx="505" cy="215" r="20" fill="#FFD700" stroke="#DAA520" stroke-width="2"/>
<text x="505" y="215" font-family="monospace" font-size="12" font-weight="bold" text-anchor="middle" dominant-baseline="middle" fill="#1e293b">C5</text>
<rect x="480.4" y="151" width="49.2" height="22" rx="4" fill="#0066CC"/>
<text x="505" y="166" font-family="-apple-system, BlinkMacSystemFont, 'Segoe UI', sans-serif" font-size="12" font-weight="600" text-anchor="middle" fill="white">main</text>
<line x1="505" y1="173" x2="505" y2="185" stroke="#0066CC" stroke-width="1.5"/>
<polygon points="500,185 510,185 505,197" fill="#0066CC"/>
<rect x="468.7" y="121" width="72.6" height="22" rx="4" fill="#22C55E"/>
<text x="505" y="136" font-family="-apple-system, BlinkMacSystemFont, 'Segoe UI', sans-serif" font-size="12" font-weight="600" text-anchor="middle" fill="white">feature</text>
<line x1="505" y1="143" x2="505" y2="185" stroke="#22C55E" stroke-width="1.5"/>
<polygon points="500,185 510,185 505,197" fill="#22C55E"/>
<text x="350" y="257" font-family="-apple-system, BlinkMacSystemFont, 'Segoe UI', sans-serif" font-size="11" fill="#64748b" text-anchor="middle">main pointer moves forward to C5 — no new commit</text>
</svg>
