<svg viewBox="0 0 700 245" xmlns="http://www.w3.org/2000/svg">
<text x="350" y="22" font-family="-apple-system, BlinkMacSystemFont, 'Segoe UI', sans-serif" font-size="15" font-weight="bold" text-anchor="middle" fill="#1e293b">Merging (Non-Fast-Forward)</text>
<line x1="100" y1="85" x2="165" y2="85" stroke="#94a3b8" stroke-width="2" fill="none"/>
<line x1="205" y1="85" x2="270" y2="85" stroke="#94a3b8" stroke-width="2" fill="none"/>
<line x1="310" y1="85" x2="395" y2="85" stroke="#94a3b8" stroke-width="2" fill="none"/>
<line x1="435" y1="85" x2="535" y2="85" stroke="#94a3b8" stroke-width="2" fill="none"/>
<line x1="297.8" y1="103.4" x2="322.2" y2="161.6" stroke="#94a3b8" stroke-width="2" fill="none"/>
<line x1="350" y1="180" x2="455" y2="180" stroke="#94a3b8" stroke-width="2" fill="none"/>
<line x1="487.9" y1="164.7" x2="542.1" y2="100.3" stroke="#94a3b8" stroke-width="2" fill="none"/>
<circle cx="80" cy="85" r="20" fill="#FFD700" stroke="#DAA520" stroke-width="2" opacity="1"/>
<text x="80" y="85" font-family="monospace" font-size="12" font-weight="bold" text-anchor="middle" dominant-baseline="middle" fill="#1e293b" opacity="1">C1</text>
<circle cx="185" cy="85" r="20" fill="#FFD700" stroke="#DAA520" stroke-width="2" opacity="1"/>
<text x="185" y="85" font-family="monospace" font-size="12" font-weight="bold" text-anchor="middle" dominant-baseline="middle" fill="#1e293b" opacity="1">C2</text>
<circle cx="290" cy="85" r="20" fill="#FFD700" stroke="#DAA520" stroke-width="2" opacity="1"/>
<text x="290" y="85" font-family="monospace" font-size="12" font-weight="bold" text-anchor="middle" dominant-baseline="middle" fill="#1e293b" opacity="1">C3</text>
<circle cx="415" cy="85" r="20" fill="#FFD700" stroke="#DAA520" stroke-width="2" opacity="1"/>
<text x="415" y="85" font-family="monospace" font-size="12" font-weight="bold" text-anchor="middle" dominant-baseline="middle" fill="#1e293b" opacity="1">C6</text>
<circle cx="555" cy="85" r="20" fill="#EF4444" stroke="#B91C1C" stroke-width="2" opacity="1"/>
<text x="555" y="85" font-family="monospace" font-size="12" font-weight="bold" text-anchor="middle" dominant-baseline="middle" fill="white" opacity="1">M</text>
<circle cx="330" cy="180" r="20" fill="#FFD700" stroke="#DAA520" stroke-width="2" opacity="1"/>
<text x="330" y="180" font-family="monospace" font-size="12" font-weight="bold" text-anchor="middle" dominant-baseline="middle" fill="#1e293b" opacity="1">C4</text>
<circle cx="475" cy="180" r="20" fill="#FFD700" stroke="#DAA520" stroke-width="2" opacity="1"/>
<text x="475" y="180" font-family="monospace" font-size="12" font-weight="bold" text-anchor="middle" dominant-baseline="middle" fill="#1e293b" opacity="1">C5</text>
<rect x="530.4" y="25.0" width="49.2" height="22" rx="4" fill="#0066CC"/>
<text x="555" y="40.0" font-family="-apple-system, BlinkMacSystemFont, 'Segoe UI', sans-serif" font-size="12" font-weight="600" text-anchor="middle" fill="white">main</text>
<line x1="555" y1="47" x2="555" y2="57.0" stroke="#0066CC" stroke-width="1.5"/>
<polygon points="550,57.0 560,57.0 555,67.0" fill="#0066CC"/>
<rect x="438.7" y="218" width="72.6" height="22" rx="4" fill="#22C55E"/>
<text x="475" y="233" font-family="-apple-system, BlinkMacSystemFont, 'Segoe UI', sans-serif" font-size="12" font-weight="600" text-anchor="middle" fill="white">feature</text>
<line x1="475" y1="208" x2="475" y2="218" stroke="#22C55E" stroke-width="1.5"/>
<polygon points="470,208 480,208 475,198" fill="#22C55E"/>
<text x="350" y="238" font-family="-apple-system, BlinkMacSystemFont, 'Segoe UI', sans-serif" font-size="11" fill="#64748b" text-anchor="middle">M has two parents: C6 (main) and C5 (feature)</text>
</svg>
