<svg viewBox="0 0 700 320" xmlns="http://www.w3.org/2000/svg">
<text x="350" y="22" font-family="-apple-system, BlinkMacSystemFont, 'Segoe UI', sans-serif" font-size="15" font-weight="bold" text-anchor="middle" fill="#1e293b">Multiple Branches</text>
<circle cx="80" cy="150" r="20" fill="#FFD700" stroke="#DAA520" stroke-width="2" opacity="1"/>
<text x="80" y="150" font-family="monospace" font-size="12" font-weight="bold" text-anchor="middle" dominant-baseline="middle" fill="#1e293b" opacity="1">C1</text>
<line x1="100" y1="150" x2="190" y2="150" stroke="#94a3b8" stroke-width="2" fill="none"/>
<circle cx="210" cy="150" r="20" fill="#FFD700" stroke="#DAA520" stroke-width="2" opacity="1"/>
<text x="210" y="150" font-family="monospace" font-size="12" font-weight="bold" text-anchor="middle" dominant-baseline="middle" fill="#1e293b" opacity="1">C2</text>
<line x1="230" y1="150" x2="305" y2="150" stroke="#94a3b8" stroke-width="2" fill="none"/>
<circle cx="325" cy="150" r="20" fill="#FFD700" stroke="#DAA520" stroke-width="2" opacity="1"/>
<text x="325" y="150" font-family="monospace" font-size="12" font-weight="bold" text-anchor="middle" dominant-baseline="middle" fill="#1e293b" opacity="1">C3</text>
<rect x="300.4" y="90.0" width="49.2" height="22" rx="4" fill="#0066CC"/>
<text x="325" y="105.0" font-family="-apple-system, BlinkMacSystemFont, 'Segoe UI', sans-serif" font-size="12" font-weight="600" text-anchor="middle" fill="white">main</text>
<line x1="325" y1="112" x2="325" y2="122.0" stroke="#0066CC" stroke-width="1.5"/>
<polygon points="320,122.0 330,122.0 325,132.0" fill="#0066CC"/>
<line x1="337.3" y1="134.2" x2="382.7" y2="75.8" stroke="#94a3b8" stroke-width="2" fill="none"/>
<line x1="415" y1="60" x2="495" y2="60" stroke="#94a3b8" stroke-width="2" fill="none"/>
<circle cx="395" cy="60" r="20" fill="#FFD700" stroke="#DAA520" stroke-width="2" opacity="1"/>
<text x="395" y="60" font-family="monospace" font-size="12" font-weight="bold" text-anchor="middle" dominant-baseline="middle" fill="#1e293b" opacity="1">C4</text>
<circle cx="515" cy="60" r="20" fill="#FFD700" stroke="#DAA520" stroke-width="2" opacity="1"/>
<text x="515" y="60" font-family="monospace" font-size="12" font-weight="bold" text-anchor="middle" dominant-baseline="middle" fill="#1e293b" opacity="1">C5</text>
<rect x="459.2" y="0.0" width="111.6" height="22" rx="4" fill="#16A34A"/>
<text x="515" y="15.0" font-family="-apple-system, BlinkMacSystemFont, 'Segoe UI', sans-serif" font-size="12" font-weight="600" text-anchor="middle" fill="white">feature/auth</text>
<line x1="515" y1="22" x2="515" y2="32.0" stroke="#16A34A" stroke-width="1.5"/>
<polygon points="510,32.0 520,32.0 515,42.0" fill="#16A34A"/>
<line x1="337.3" y1="165.8" x2="382.7" y2="224.2" stroke="#94a3b8" stroke-width="2" fill="none"/>
<line x1="415" y1="240" x2="495" y2="240" stroke="#94a3b8" stroke-width="2" fill="none"/>
<circle cx="395" cy="240" r="20" fill="#FFD700" stroke="#DAA520" stroke-width="2" opacity="1"/>
<text x="395" y="240" font-family="monospace" font-size="12" font-weight="bold" text-anchor="middle" dominant-baseline="middle" fill="#1e293b" opacity="1">C6</text>
<circle cx="515" cy="240" r="20" fill="#FFD700" stroke="#DAA520" stroke-width="2" opacity="1"/>
<text x="515" y="240" font-family="monospace" font-size="12" font-weight="bold" text-anchor="middle" dominant-baseline="middle" fill="#1e293b" opacity="1">C7</text>
<rect x="451.4" y="278" width="127.2" height="22" rx="4" fill="#7C3AED"/>
<text x="515" y="293" font-family="-apple-system, BlinkMacSystemFont, 'Segoe UI', sans-serif" font-size="12" font-weight="600" text-anchor="middle" fill="white">feature/search</text>
<line x1="515" y1="268" x2="515" y2="278" stroke="#7C3AED" stroke-width="1.5"/>
<polygon points="510,268 520,268 515,258" fill="#7C3AED"/>
</svg>
