<svg viewBox="0 0 700 381" xmlns="http://www.w3.org/2000/svg">
<text x="350" y="24" font-family="-apple-system, BlinkMacSystemFont, 'Segoe UI', sans-serif" font-size="15" font-weight="bold" text-anchor="middle" fill="#1e293b">Multiple Branches</text>
<circle cx="75" cy="200" r="20" fill="#FFD700" stroke="#DAA520" stroke-width="2"/>
<text x="75" y="200" font-family="monospace" font-size="12" font-weight="bold" text-anchor="middle" dominant-baseline="middle" fill="#1e293b">C1</text>
<line x1="95" y1="200" x2="185" y2="200" stroke="#94a3b8" stroke-width="2" fill="none"/>
<circle cx="205" cy="200" r="20" fill="#FFD700" stroke="#DAA520" stroke-width="2"/>
<text x="205" y="200" font-family="monospace" font-size="12" font-weight="bold" text-anchor="middle" dominant-baseline="middle" fill="#1e293b">C2</text>
<line x1="225" y1="200" x2="300" y2="200" stroke="#94a3b8" stroke-width="2" fill="none"/>
<circle cx="320" cy="200" r="20" fill="#FFD700" stroke="#DAA520" stroke-width="2"/>
<text x="320" y="200" font-family="monospace" font-size="12" font-weight="bold" text-anchor="middle" dominant-baseline="middle" fill="#1e293b">C3</text>
<rect x="295.4" y="136" width="49.2" height="22" rx="4" fill="#0066CC"/>
<text x="320" y="151" font-family="-apple-system, BlinkMacSystemFont, 'Segoe UI', sans-serif" font-size="12" font-weight="600" text-anchor="middle" fill="white">main</text>
<line x1="320" y1="158" x2="320" y2="170" stroke="#0066CC" stroke-width="1.5"/>
<polygon points="315,170 325,170 320,182" fill="#0066CC"/>
<line x1="332.3" y1="184.2" x2="377.7" y2="125.8" stroke="#94a3b8" stroke-width="2" fill="none"/>
<line x1="410" y1="110" x2="490" y2="110" stroke="#94a3b8" stroke-width="2" fill="none"/>
<circle cx="390" cy="110" r="20" fill="#FFD700" stroke="#DAA520" stroke-width="2"/>
<text x="390" y="110" font-family="monospace" font-size="12" font-weight="bold" text-anchor="middle" dominant-baseline="middle" fill="#1e293b">C4</text>
<circle cx="510" cy="110" r="20" fill="#FFD700" stroke="#DAA520" stroke-width="2"/>
<text x="510" y="110" font-family="monospace" font-size="12" font-weight="bold" text-anchor="middle" dominant-baseline="middle" fill="#1e293b">C5</text>
<rect x="454.2" y="46" width="111.6" height="22" rx="4" fill="#16A34A"/>
<text x="510" y="61" font-family="-apple-system, BlinkMacSystemFont, 'Segoe UI', sans-serif" font-size="12" font-weight="600" text-anchor="middle" fill="white">feature/auth</text>
<line x1="510" y1="68" x2="510" y2="80" stroke="#16A34A" stroke-width="1.5"/>
<polygon points="505,80 515,80 510,92" fill="#16A34A"/>
<line x1="331.9" y1="216.1" x2="378.1" y2="278.9" stroke="#94a3b8" stroke-width="2" fill="none"/>
<line x1="410" y1="295" x2="490" y2="295" stroke="#94a3b8" stroke-width="2" fill="none"/>
<circle cx="390" cy="295" r="20" fill="#FFD700" stroke="#DAA520" stroke-width="2"/>
<text x="390" y="295" font-family="monospace" font-size="12" font-weight="bold" text-anchor="middle" dominant-baseline="middle" fill="#1e293b">C6</text>
<circle cx="510" cy="295" r="20" fill="#FFD700" stroke="#DAA520" stroke-width="2"/>
<text x="510" y="295" font-family="monospace" font-size="12" font-weight="bold" text-anchor="middle" dominant-baseline="middle" fill="#1e293b">C7</text>
<rect x="446.4" y="337" width="127.2" height="22" rx="4" fill="#7C3AED"/>
<text x="510" y="352" font-family="-apple-system, BlinkMacSystemFont, 'Segoe UI', sans-serif" font-size="12" font-weight="600" text-anchor="middle" fill="white">feature/search</text>
<line x1="510" y1="325" x2="510" y2="337" stroke="#7C3AED" stroke-width="1.5"/>
<polygon points="505,325 515,325 510,313" fill="#7C3AED"/>
</svg>
