<svg viewBox="0 0 700 390" xmlns="http://www.w3.org/2000/svg">
<text x="350" y="28" font-family="-apple-system, BlinkMacSystemFont, 'Segoe UI', sans-serif" font-size="15" font-weight="bold" text-anchor="middle" fill="#1e293b">Multiple Branches</text>
<line x1="100" y1="195" x2="190" y2="195" stroke="#94a3b8" stroke-width="2" fill="none"/>
<line x1="230" y1="195" x2="305" y2="195" stroke="#94a3b8" stroke-width="2" fill="none"/>
<circle cx="80" cy="195" r="20" fill="#FFD700" stroke="#DAA520" stroke-width="2"/>
<text x="80" y="195" font-family="monospace" font-size="12" font-weight="bold" text-anchor="middle" dominant-baseline="middle" fill="#1e293b">C1</text>
<circle cx="210" cy="195" r="20" fill="#FFD700" stroke="#DAA520" stroke-width="2"/>
<text x="210" y="195" font-family="monospace" font-size="12" font-weight="bold" text-anchor="middle" dominant-baseline="middle" fill="#1e293b">C2</text>
<circle cx="325" cy="195" r="20" fill="#FFD700" stroke="#DAA520" stroke-width="2"/>
<text x="325" y="195" font-family="monospace" font-size="12" font-weight="bold" text-anchor="middle" dominant-baseline="middle" fill="#1e293b">C3</text>
<rect x="300.4" y="135.0" width="49.2" height="22" rx="4" fill="#0066CC"/>
<text x="325" y="150.0" font-family="-apple-system, BlinkMacSystemFont, 'Segoe UI', sans-serif" font-size="12" font-weight="600" text-anchor="middle" fill="white">main</text>
<line x1="325" y1="157" x2="325" y2="167.0" stroke="#0066CC" stroke-width="1.5"/>
<polygon points="320,167.0 330,167.0 325,177.0" fill="#0066CC"/>
<line x1="337.3" y1="179.2" x2="382.7" y2="120.8" stroke="#94a3b8" stroke-width="2" fill="none"/>
<line x1="415" y1="105" x2="495" y2="105" stroke="#94a3b8" stroke-width="2" fill="none"/>
<circle cx="395" cy="105" r="20" fill="#FFD700" stroke="#DAA520" stroke-width="2"/>
<text x="395" y="105" font-family="monospace" font-size="12" font-weight="bold" text-anchor="middle" dominant-baseline="middle" fill="#1e293b">C4</text>
<circle cx="515" cy="105" r="20" fill="#FFD700" stroke="#DAA520" stroke-width="2"/>
<text x="515" y="105" font-family="monospace" font-size="12" font-weight="bold" text-anchor="middle" dominant-baseline="middle" fill="#1e293b">C5</text>
<rect x="459.2" y="45.0" width="111.6" height="22" rx="4" fill="#16A34A"/>
<text x="515" y="60.0" font-family="-apple-system, BlinkMacSystemFont, 'Segoe UI', sans-serif" font-size="12" font-weight="600" text-anchor="middle" fill="white">feature/auth</text>
<line x1="515" y1="67" x2="515" y2="77.0" stroke="#16A34A" stroke-width="1.5"/>
<polygon points="510,77.0 520,77.0 515,87.0" fill="#16A34A"/>
<line x1="337.3" y1="210.8" x2="382.7" y2="269.2" stroke="#94a3b8" stroke-width="2" fill="none"/>
<line x1="415" y1="285" x2="495" y2="285" stroke="#94a3b8" stroke-width="2" fill="none"/>
<circle cx="395" cy="285" r="20" fill="#FFD700" stroke="#DAA520" stroke-width="2"/>
<text x="395" y="285" font-family="monospace" font-size="12" font-weight="bold" text-anchor="middle" dominant-baseline="middle" fill="#1e293b">C6</text>
<circle cx="515" cy="285" r="20" fill="#FFD700" stroke="#DAA520" stroke-width="2"/>
<text x="515" y="285" font-family="monospace" font-size="12" font-weight="bold" text-anchor="middle" dominant-baseline="middle" fill="#1e293b">C7</text>
<rect x="451.4" y="323" width="127.2" height="22" rx="4" fill="#7C3AED"/>
<text x="515" y="338" font-family="-apple-system, BlinkMacSystemFont, 'Segoe UI', sans-serif" font-size="12" font-weight="600" text-anchor="middle" fill="white">feature/search</text>
<line x1="515" y1="313" x2="515" y2="323" stroke="#7C3AED" stroke-width="1.5"/>
<polygon points="510,313 520,313 515,303" fill="#7C3AED"/>
</svg>