<svg viewBox="0 0 700 300" xmlns="http://www.w3.org/2000/svg">
<text x="350" y="22" font-family="-apple-system, BlinkMacSystemFont, 'Segoe UI', sans-serif" font-size="15" font-weight="bold" text-anchor="middle" fill="#1e293b">Push and Fetch</text>
<text x="12" y="45" font-family="-apple-system, BlinkMacSystemFont, 'Segoe UI', sans-serif" font-size="12" font-weight="600" fill="#94a3b8">Local repository</text>
<line x1="0" y1="157" x2="700" y2="157" stroke="#e2e8f0" stroke-width="1.5" stroke-dasharray="5,4"/>
<text x="12" y="177" font-family="-apple-system, BlinkMacSystemFont, 'Segoe UI', sans-serif" font-size="12" font-weight="600" fill="#94a3b8">Remote repository (origin)</text>
<circle cx="70" cy="95" r="20" fill="#FFD700" stroke="#DAA520" stroke-width="2" opacity="1"/>
<text x="70" y="95" font-family="monospace" font-size="12" font-weight="bold" text-anchor="middle" dominant-baseline="middle" fill="#1e293b" opacity="1">C1</text>
<line x1="90" y1="95" x2="165" y2="95" stroke="#94a3b8" stroke-width="2" fill="none"/>
<circle cx="185" cy="95" r="20" fill="#FFD700" stroke="#DAA520" stroke-width="2" opacity="1"/>
<text x="185" y="95" font-family="monospace" font-size="12" font-weight="bold" text-anchor="middle" dominant-baseline="middle" fill="#1e293b" opacity="1">C2</text>
<line x1="205" y1="95" x2="280" y2="95" stroke="#94a3b8" stroke-width="2" fill="none"/>
<circle cx="300" cy="95" r="20" fill="#FFD700" stroke="#DAA520" stroke-width="2" opacity="1"/>
<text x="300" y="95" font-family="monospace" font-size="12" font-weight="bold" text-anchor="middle" dominant-baseline="middle" fill="#1e293b" opacity="1">C3</text>
<line x1="320" y1="95" x2="395" y2="95" stroke="#94a3b8" stroke-width="2" fill="none"/>
<circle cx="415" cy="95" r="20" fill="#FFD700" stroke="#DAA520" stroke-width="2" opacity="1"/>
<text x="415" y="95" font-family="monospace" font-size="12" font-weight="bold" text-anchor="middle" dominant-baseline="middle" fill="#1e293b" opacity="1">C4</text>
<rect x="390.4" y="7.0" width="49.2" height="22" rx="4" fill="#0066CC"/>
<text x="415" y="22.0" font-family="-apple-system, BlinkMacSystemFont, 'Segoe UI', sans-serif" font-size="12" font-weight="600" text-anchor="middle" fill="white">main</text>
<line x1="415" y1="29" x2="415" y2="67.0" stroke="#0066CC" stroke-width="1.5"/>
<polygon points="410,67.0 420,67.0 415,77.0" fill="#0066CC"/>
<rect x="248.1" y="35.0" width="103.8" height="22" rx="4" fill="#0891B2"/>
<text x="300" y="50.0" font-family="-apple-system, BlinkMacSystemFont, 'Segoe UI', sans-serif" font-size="12" font-weight="600" text-anchor="middle" fill="white">origin/main</text>
<line x1="300" y1="57" x2="300" y2="67.0" stroke="#0891B2" stroke-width="1.5"/>
<polygon points="295,67.0 305,67.0 300,77.0" fill="#0891B2"/>
<circle cx="70" cy="215" r="20" fill="#FFD700" stroke="#DAA520" stroke-width="2" opacity="1"/>
<text x="70" y="215" font-family="monospace" font-size="12" font-weight="bold" text-anchor="middle" dominant-baseline="middle" fill="#1e293b" opacity="1">C1</text>
<line x1="90" y1="215" x2="165" y2="215" stroke="#94a3b8" stroke-width="2" fill="none"/>
<circle cx="185" cy="215" r="20" fill="#FFD700" stroke="#DAA520" stroke-width="2" opacity="1"/>
<text x="185" y="215" font-family="monospace" font-size="12" font-weight="bold" text-anchor="middle" dominant-baseline="middle" fill="#1e293b" opacity="1">C2</text>
<line x1="205" y1="215" x2="280" y2="215" stroke="#94a3b8" stroke-width="2" fill="none"/>
<circle cx="300" cy="215" r="20" fill="#FFD700" stroke="#DAA520" stroke-width="2" opacity="1"/>
<text x="300" y="215" font-family="monospace" font-size="12" font-weight="bold" text-anchor="middle" dominant-baseline="middle" fill="#1e293b" opacity="1">C3</text>
<defs><marker id="push-arrow" markerWidth="9" markerHeight="9" refX="8" refY="3" orient="auto"><polygon points="0 0,9 3,0 6" fill="#0891B2"/></marker></defs>
<path d="M 415 119 C 415 155 415 155 415 191" stroke="#0891B2" stroke-width="1.5" stroke-dasharray="5,3" fill="none" marker-end="url(#push-arrow)"/>
<text x="423" y="155" font-family="-apple-system, BlinkMacSystemFont, 'Segoe UI', sans-serif" font-size="11" fill="#0891B2" text-anchor="start">git push</text>
<line x1="320" y1="215" x2="395" y2="215" stroke="#94a3b8" stroke-width="2" stroke-dasharray="6,3" fill="none"/>
<circle cx="415" cy="215" r="20" fill="#FFD700" stroke="#DAA520" stroke-width="2" opacity="1"/>
<text x="415" y="215" font-family="monospace" font-size="12" font-weight="bold" text-anchor="middle" dominant-baseline="middle" fill="#1e293b" opacity="1">C4</text>
<rect x="390.4" y="155.0" width="49.2" height="22" rx="4" fill="#475569"/>
<text x="415" y="170.0" font-family="-apple-system, BlinkMacSystemFont, 'Segoe UI', sans-serif" font-size="12" font-weight="600" text-anchor="middle" fill="white">main</text>
<line x1="415" y1="177" x2="415" y2="187.0" stroke="#475569" stroke-width="1.5"/>
<polygon points="410,187.0 420,187.0 415,197.0" fill="#475569"/>
<text x="350" y="292" font-family="-apple-system, BlinkMacSystemFont, 'Segoe UI', sans-serif" font-size="11" fill="#64748b" text-anchor="middle">After push: remote gains C4 and its main pointer advances</text>
</svg>
