<svg viewBox="0 0 700 308" xmlns="http://www.w3.org/2000/svg">
<text x="350" y="24" font-family="-apple-system, BlinkMacSystemFont, 'Segoe UI', sans-serif" font-size="15" font-weight="bold" text-anchor="middle" fill="#1e293b">Push and Fetch</text>
<text x="12" y="48" font-family="-apple-system, BlinkMacSystemFont, 'Segoe UI', sans-serif" font-size="12" font-weight="600" fill="#94a3b8">Local repository</text>
<circle cx="65" cy="95" r="20" fill="#FFD700" stroke="#DAA520" stroke-width="2"/>
<text x="65" y="95" font-family="monospace" font-size="12" font-weight="bold" text-anchor="middle" dominant-baseline="middle" fill="#1e293b">C1</text>
<line x1="85" y1="95" x2="155" y2="95" stroke="#94a3b8" stroke-width="2" fill="none"/>
<circle cx="175" cy="95" r="20" fill="#FFD700" stroke="#DAA520" stroke-width="2"/>
<text x="175" y="95" font-family="monospace" font-size="12" font-weight="bold" text-anchor="middle" dominant-baseline="middle" fill="#1e293b">C2</text>
<line x1="195" y1="95" x2="265" y2="95" stroke="#94a3b8" stroke-width="2" fill="none"/>
<circle cx="285" cy="95" r="20" fill="#FFD700" stroke="#DAA520" stroke-width="2"/>
<text x="285" y="95" font-family="monospace" font-size="12" font-weight="bold" text-anchor="middle" dominant-baseline="middle" fill="#1e293b">C3</text>
<line x1="305" y1="95" x2="375" y2="95" stroke="#94a3b8" stroke-width="2" fill="none"/>
<circle cx="395" cy="95" r="20" fill="#FFD700" stroke="#DAA520" stroke-width="2"/>
<text x="395" y="95" font-family="monospace" font-size="12" font-weight="bold" text-anchor="middle" dominant-baseline="middle" fill="#1e293b">C4</text>
<rect x="370.4" y="1" width="49.2" height="22" rx="4" fill="#0066CC"/>
<text x="395" y="16" font-family="-apple-system, BlinkMacSystemFont, 'Segoe UI', sans-serif" font-size="12" font-weight="600" text-anchor="middle" fill="white">main</text>
<line x1="395" y1="23" x2="395" y2="65" stroke="#0066CC" stroke-width="1.5"/>
<polygon points="390,65 400,65 395,77" fill="#0066CC"/>
<rect x="233.1" y="31" width="103.8" height="22" rx="4" fill="#0891B2"/>
<text x="285" y="46" font-family="-apple-system, BlinkMacSystemFont, 'Segoe UI', sans-serif" font-size="12" font-weight="600" text-anchor="middle" fill="white">origin/main</text>
<line x1="285" y1="53" x2="285" y2="65" stroke="#0891B2" stroke-width="1.5"/>
<polygon points="280,65 290,65 285,77" fill="#0891B2"/>
<line x1="0" y1="162" x2="700" y2="162" stroke="#e2e8f0" stroke-width="1.5" stroke-dasharray="5,4"/>
<text x="12" y="182" font-family="-apple-system, BlinkMacSystemFont, 'Segoe UI', sans-serif" font-size="12" font-weight="600" fill="#94a3b8">Remote repository (origin)</text>
<circle cx="65" cy="230" r="20" fill="#FFD700" stroke="#DAA520" stroke-width="2"/>
<text x="65" y="230" font-family="monospace" font-size="12" font-weight="bold" text-anchor="middle" dominant-baseline="middle" fill="#1e293b">C1</text>
<line x1="85" y1="230" x2="155" y2="230" stroke="#94a3b8" stroke-width="2" fill="none"/>
<circle cx="175" cy="230" r="20" fill="#FFD700" stroke="#DAA520" stroke-width="2"/>
<text x="175" y="230" font-family="monospace" font-size="12" font-weight="bold" text-anchor="middle" dominant-baseline="middle" fill="#1e293b">C2</text>
<line x1="195" y1="230" x2="265" y2="230" stroke="#94a3b8" stroke-width="2" fill="none"/>
<circle cx="285" cy="230" r="20" fill="#FFD700" stroke="#DAA520" stroke-width="2"/>
<text x="285" y="230" font-family="monospace" font-size="12" font-weight="bold" text-anchor="middle" dominant-baseline="middle" fill="#1e293b">C3</text>
<line x1="305" y1="230" x2="375" y2="230" stroke="#94a3b8" stroke-width="2" stroke-dasharray="6,3" fill="none"/>
<circle cx="395" cy="230" r="20" fill="#FFD700" stroke="#DAA520" stroke-width="2"/>
<text x="395" y="230" font-family="monospace" font-size="12" font-weight="bold" text-anchor="middle" dominant-baseline="middle" fill="#1e293b">C4</text>
<rect x="370.4" y="166" width="49.2" height="22" rx="4" fill="#0891B2"/>
<text x="395" y="181" font-family="-apple-system, BlinkMacSystemFont, 'Segoe UI', sans-serif" font-size="12" font-weight="600" text-anchor="middle" fill="white">main</text>
<line x1="395" y1="188" x2="395" y2="200" stroke="#0891B2" stroke-width="1.5"/>
<polygon points="390,200 400,200 395,212" fill="#0891B2"/>
<defs><marker id="push-arr" markerWidth="9" markerHeight="9" refX="8" refY="3" orient="auto"><polygon points="0 0,9 3,0 6" fill="#0891B2"/></marker></defs>
<path d="M 395 119 L 395 206" stroke="#0891B2" stroke-width="1.5" stroke-dasharray="5,3" fill="none" marker-end="url(#push-arr)"/>
<text x="403" y="162.5" font-family="-apple-system, BlinkMacSystemFont, 'Segoe UI', sans-serif" font-size="11" fill="#0891B2">git push</text>
<text x="350" y="272" font-family="-apple-system, BlinkMacSystemFont, 'Segoe UI', sans-serif" font-size="11" fill="#64748b" text-anchor="middle">After push: remote gains C4 and its main pointer advances</text>
</svg>
