<svg viewBox="0 0 700 418" xmlns="http://www.w3.org/2000/svg">
<text x="350" y="24" font-family="-apple-system, BlinkMacSystemFont, 'Segoe UI', sans-serif" font-size="15" font-weight="bold" text-anchor="middle" fill="#1e293b">Rebasing</text>
<text x="12" y="46" font-family="-apple-system, BlinkMacSystemFont, 'Segoe UI', sans-serif" font-size="12" font-weight="600" fill="#94a3b8">Before</text>
<circle cx="65" cy="95" r="20" fill="#FFD700" stroke="#DAA520" stroke-width="2"/>
<text x="65" y="95" font-family="monospace" font-size="12" font-weight="bold" text-anchor="middle" dominant-baseline="middle" fill="#1e293b">C1</text>
<line x1="85" y1="95" x2="160" y2="95" stroke="#94a3b8" stroke-width="2" fill="none"/>
<circle cx="180" cy="95" r="20" fill="#FFD700" stroke="#DAA520" stroke-width="2"/>
<text x="180" y="95" font-family="monospace" font-size="12" font-weight="bold" text-anchor="middle" dominant-baseline="middle" fill="#1e293b">C2</text>
<line x1="200" y1="95" x2="270" y2="95" stroke="#94a3b8" stroke-width="2" fill="none"/>
<circle cx="290" cy="95" r="20" fill="#FFD700" stroke="#DAA520" stroke-width="2"/>
<text x="290" y="95" font-family="monospace" font-size="12" font-weight="bold" text-anchor="middle" dominant-baseline="middle" fill="#1e293b">C3</text>
<line x1="310" y1="95" x2="385" y2="95" stroke="#94a3b8" stroke-width="2" fill="none"/>
<circle cx="405" cy="95" r="20" fill="#FFD700" stroke="#DAA520" stroke-width="2"/>
<text x="405" y="95" font-family="monospace" font-size="12" font-weight="bold" text-anchor="middle" dominant-baseline="middle" fill="#1e293b">C6</text>
<rect x="380.4" y="31" width="49.2" height="22" rx="4" fill="#0066CC"/>
<text x="405" y="46" font-family="-apple-system, BlinkMacSystemFont, 'Segoe UI', sans-serif" font-size="12" font-weight="600" text-anchor="middle" fill="white">main</text>
<line x1="405" y1="53" x2="405" y2="65" stroke="#0066CC" stroke-width="1.5"/>
<polygon points="400,65 410,65 405,77" fill="#0066CC"/>
<line x1="298" y1="113.3" x2="317" y2="156.7" stroke="#94a3b8" stroke-width="2" fill="none"/>
<line x1="345" y1="175" x2="420" y2="175" stroke="#94a3b8" stroke-width="2" fill="none"/>
<circle cx="325" cy="175" r="20" fill="#FFD700" stroke="#DAA520" stroke-width="2"/>
<text x="325" y="175" font-family="monospace" font-size="12" font-weight="bold" text-anchor="middle" dominant-baseline="middle" fill="#1e293b">C4</text>
<circle cx="440" cy="175" r="20" fill="#FFD700" stroke="#DAA520" stroke-width="2"/>
<text x="440" y="175" font-family="monospace" font-size="12" font-weight="bold" text-anchor="middle" dominant-baseline="middle" fill="#1e293b">C5</text>
<rect x="403.7" y="111" width="72.6" height="22" rx="4" fill="#22C55E"/>
<text x="440" y="126" font-family="-apple-system, BlinkMacSystemFont, 'Segoe UI', sans-serif" font-size="12" font-weight="600" text-anchor="middle" fill="white">feature</text>
<line x1="440" y1="133" x2="440" y2="145" stroke="#22C55E" stroke-width="1.5"/>
<polygon points="435,145 445,145 440,157" fill="#22C55E"/>
<line x1="0" y1="210" x2="700" y2="210" stroke="#e2e8f0" stroke-width="1.5" stroke-dasharray="5,4"/>
<text x="12" y="230" font-family="-apple-system, BlinkMacSystemFont, 'Segoe UI', sans-serif" font-size="12" font-weight="600" fill="#94a3b8">After  (git rebase main)</text>
<circle cx="65" cy="265" r="20" fill="#FFD700" stroke="#DAA520" stroke-width="2"/>
<text x="65" y="265" font-family="monospace" font-size="12" font-weight="bold" text-anchor="middle" dominant-baseline="middle" fill="#1e293b">C1</text>
<line x1="85" y1="265" x2="160" y2="265" stroke="#94a3b8" stroke-width="2" fill="none"/>
<circle cx="180" cy="265" r="20" fill="#FFD700" stroke="#DAA520" stroke-width="2"/>
<text x="180" y="265" font-family="monospace" font-size="12" font-weight="bold" text-anchor="middle" dominant-baseline="middle" fill="#1e293b">C2</text>
<line x1="200" y1="265" x2="270" y2="265" stroke="#94a3b8" stroke-width="2" fill="none"/>
<circle cx="290" cy="265" r="20" fill="#FFD700" stroke="#DAA520" stroke-width="2"/>
<text x="290" y="265" font-family="monospace" font-size="12" font-weight="bold" text-anchor="middle" dominant-baseline="middle" fill="#1e293b">C3</text>
<line x1="310" y1="265" x2="385" y2="265" stroke="#94a3b8" stroke-width="2" fill="none"/>
<circle cx="405" cy="265" r="20" fill="#FFD700" stroke="#DAA520" stroke-width="2"/>
<text x="405" y="265" font-family="monospace" font-size="12" font-weight="bold" text-anchor="middle" dominant-baseline="middle" fill="#1e293b">C6</text>
<rect x="380.4" y="201" width="49.2" height="22" rx="4" fill="#0066CC"/>
<text x="405" y="216" font-family="-apple-system, BlinkMacSystemFont, 'Segoe UI', sans-serif" font-size="12" font-weight="600" text-anchor="middle" fill="white">main</text>
<line x1="405" y1="223" x2="405" y2="235" stroke="#0066CC" stroke-width="1.5"/>
<polygon points="400,235 410,235 405,247" fill="#0066CC"/>
<line x1="298.5" y1="283.1" x2="316.5" y2="321.9" stroke="#94a3b8" stroke-width="2" fill="none"/>
<line x1="345" y1="340" x2="420" y2="340" stroke="#94a3b8" stroke-width="2" stroke-dasharray="6,3" fill="none"/>
<circle cx="325" cy="340" r="20" fill="#e2e8f0" stroke="#94a3b8" stroke-width="2"/>
<text x="325" y="340" font-family="monospace" font-size="12" font-weight="bold" text-anchor="middle" dominant-baseline="middle" fill="#94a3b8">C4</text>
<circle cx="440" cy="340" r="20" fill="#e2e8f0" stroke="#94a3b8" stroke-width="2"/>
<text x="440" y="340" font-family="monospace" font-size="12" font-weight="bold" text-anchor="middle" dominant-baseline="middle" fill="#94a3b8">C5</text>
<line x1="425" y1="265" x2="485" y2="265" stroke="#94a3b8" stroke-width="2" fill="none"/>
<line x1="525" y1="265" x2="585" y2="265" stroke="#94a3b8" stroke-width="2" fill="none"/>
<circle cx="505" cy="265" r="20" fill="#9333EA" stroke="#7E22CE" stroke-width="2"/>
<text x="505" y="265" font-family="monospace" font-size="12" font-weight="bold" text-anchor="middle" dominant-baseline="middle" fill="white">C4'</text>
<circle cx="605" cy="265" r="20" fill="#9333EA" stroke="#7E22CE" stroke-width="2"/>
<text x="605" y="265" font-family="monospace" font-size="12" font-weight="bold" text-anchor="middle" dominant-baseline="middle" fill="white">C5'</text>
<rect x="568.7" y="201" width="72.6" height="22" rx="4" fill="#7C3AED"/>
<text x="605" y="216" font-family="-apple-system, BlinkMacSystemFont, 'Segoe UI', sans-serif" font-size="12" font-weight="600" text-anchor="middle" fill="white">feature</text>
<line x1="605" y1="223" x2="605" y2="235" stroke="#7C3AED" stroke-width="1.5"/>
<polygon points="600,235 610,235 605,247" fill="#7C3AED"/>
<text x="350" y="382" font-family="-apple-system, BlinkMacSystemFont, 'Segoe UI', sans-serif" font-size="11" fill="#64748b" text-anchor="middle">C4' and C5' are new commits (different hashes); old C4/C5 become unreferenced</text>
</svg>
