<svg viewBox="0 0 700 173" xmlns="http://www.w3.org/2000/svg">
<text x="350" y="24" font-family="-apple-system, BlinkMacSystemFont, 'Segoe UI', sans-serif" font-size="15" font-weight="bold" text-anchor="middle" fill="#1e293b">Reverting Commits</text>
<circle cx="65" cy="95" r="20" fill="#FFD700" stroke="#DAA520" stroke-width="2"/>
<text x="65" y="95" font-family="monospace" font-size="12" font-weight="bold" text-anchor="middle" dominant-baseline="middle" fill="#1e293b">C1</text>
<line x1="85" y1="95" x2="165" y2="95" stroke="#94a3b8" stroke-width="2" fill="none"/>
<circle cx="185" cy="95" r="20" fill="#FFD700" stroke="#DAA520" stroke-width="2"/>
<text x="185" y="95" font-family="monospace" font-size="12" font-weight="bold" text-anchor="middle" dominant-baseline="middle" fill="#1e293b">C2</text>
<line x1="205" y1="95" x2="285" y2="95" stroke="#94a3b8" stroke-width="2" fill="none"/>
<circle cx="305" cy="95" r="20" fill="#FFD700" stroke="#DAA520" stroke-width="2"/>
<text x="305" y="95" font-family="monospace" font-size="12" font-weight="bold" text-anchor="middle" dominant-baseline="middle" fill="#1e293b">C3</text>
<line x1="325" y1="95" x2="405" y2="95" stroke="#94a3b8" stroke-width="2" fill="none"/>
<circle cx="425" cy="95" r="20" fill="#FFD700" stroke="#DAA520" stroke-width="2"/>
<text x="425" y="95" font-family="monospace" font-size="12" font-weight="bold" text-anchor="middle" dominant-baseline="middle" fill="#1e293b">C4</text>
<line x1="445" y1="95" x2="535" y2="95" stroke="#94a3b8" stroke-width="2" fill="none"/>
<circle cx="555" cy="95" r="20" fill="#22C55E" stroke="#16A34A" stroke-width="2"/>
<text x="555" y="95" font-family="monospace" font-size="12" font-weight="bold" text-anchor="middle" dominant-baseline="middle" fill="white">R</text>
<rect x="530.4" y="31" width="49.2" height="22" rx="4" fill="#0066CC"/>
<text x="555" y="46" font-family="-apple-system, BlinkMacSystemFont, 'Segoe UI', sans-serif" font-size="12" font-weight="600" text-anchor="middle" fill="white">main</text>
<line x1="555" y1="53" x2="555" y2="65" stroke="#0066CC" stroke-width="1.5"/>
<polygon points="550,65 560,65 555,77" fill="#0066CC"/>
<text x="350" y="137" font-family="-apple-system, BlinkMacSystemFont, 'Segoe UI', sans-serif" font-size="11" fill="#64748b" text-anchor="middle">R undoes C4's changes — C4 stays in history, R is a new normal commit</text>
</svg>
