<svg viewBox="0 0 700 392" xmlns="http://www.w3.org/2000/svg">
<text x="350" y="24" font-family="-apple-system, BlinkMacSystemFont, 'Segoe UI', sans-serif" font-size="15" font-weight="bold" text-anchor="middle" fill="#1e293b">Team Workflow</text>
<line x1="85" y1="175" x2="160" y2="175" stroke="#94a3b8" stroke-width="2" fill="none"/>
<line x1="200" y1="175" x2="400" y2="175" stroke="#94a3b8" stroke-width="2" fill="none"/>
<line x1="440" y1="175" x2="585" y2="175" stroke="#94a3b8" stroke-width="2" fill="none"/>
<line x1="188.9" y1="157.1" x2="216.1" y2="102.9" stroke="#94a3b8" stroke-width="2" fill="none"/>
<line x1="245" y1="85" x2="330" y2="85" stroke="#94a3b8" stroke-width="2" fill="none"/>
<line x1="362.3" y1="100.8" x2="407.7" y2="159.2" stroke="#94a3b8" stroke-width="2" fill="none"/>
<line x1="428.6" y1="193.1" x2="456.4" y2="251.9" stroke="#94a3b8" stroke-width="2" fill="none"/>
<line x1="485" y1="270" x2="535" y2="270" stroke="#94a3b8" stroke-width="2" fill="none"/>
<line x1="564.3" y1="252.3" x2="595.7" y2="192.7" stroke="#94a3b8" stroke-width="2" fill="none"/>
<circle cx="65" cy="175" r="20" fill="#FFD700" stroke="#DAA520" stroke-width="2"/>
<text x="65" y="175" font-family="monospace" font-size="12" font-weight="bold" text-anchor="middle" dominant-baseline="middle" fill="#1e293b">C1</text>
<circle cx="180" cy="175" r="20" fill="#FFD700" stroke="#DAA520" stroke-width="2"/>
<text x="180" y="175" font-family="monospace" font-size="12" font-weight="bold" text-anchor="middle" dominant-baseline="middle" fill="#1e293b">C2</text>
<circle cx="225" cy="85" r="20" fill="#FFD700" stroke="#DAA520" stroke-width="2"/>
<text x="225" y="85" font-family="monospace" font-size="12" font-weight="bold" text-anchor="middle" dominant-baseline="middle" fill="#1e293b">C4</text>
<circle cx="350" cy="85" r="20" fill="#FFD700" stroke="#DAA520" stroke-width="2"/>
<text x="350" y="85" font-family="monospace" font-size="12" font-weight="bold" text-anchor="middle" dominant-baseline="middle" fill="#1e293b">C5</text>
<circle cx="420" cy="175" r="20" fill="#EF4444" stroke="#B91C1C" stroke-width="2"/>
<text x="420" y="175" font-family="monospace" font-size="12" font-weight="bold" text-anchor="middle" dominant-baseline="middle" fill="white">M1</text>
<circle cx="465" cy="270" r="20" fill="#FFD700" stroke="#DAA520" stroke-width="2"/>
<text x="465" y="270" font-family="monospace" font-size="12" font-weight="bold" text-anchor="middle" dominant-baseline="middle" fill="#1e293b">C6</text>
<circle cx="555" cy="270" r="20" fill="#FFD700" stroke="#DAA520" stroke-width="2"/>
<text x="555" y="270" font-family="monospace" font-size="12" font-weight="bold" text-anchor="middle" dominant-baseline="middle" fill="#1e293b">C7</text>
<circle cx="605" cy="175" r="20" fill="#EF4444" stroke="#B91C1C" stroke-width="2"/>
<text x="605" y="175" font-family="monospace" font-size="12" font-weight="bold" text-anchor="middle" dominant-baseline="middle" fill="white">M2</text>
<rect x="580.4" y="111" width="49.2" height="22" rx="4" fill="#0066CC"/>
<text x="605" y="126" font-family="-apple-system, BlinkMacSystemFont, 'Segoe UI', sans-serif" font-size="12" font-weight="600" text-anchor="middle" fill="white">main</text>
<line x1="605" y1="133" x2="605" y2="145" stroke="#0066CC" stroke-width="1.5"/>
<polygon points="600,145 610,145 605,157" fill="#0066CC"/>
<rect x="294.2" y="21" width="111.6" height="22" rx="4" fill="#16A34A"/>
<text x="350" y="36" font-family="-apple-system, BlinkMacSystemFont, 'Segoe UI', sans-serif" font-size="12" font-weight="600" text-anchor="middle" fill="white">feature/auth</text>
<line x1="350" y1="43" x2="350" y2="55" stroke="#16A34A" stroke-width="1.5"/>
<polygon points="345,55 355,55 350,67" fill="#16A34A"/>
<rect x="491.4" y="312" width="127.2" height="22" rx="4" fill="#7C3AED"/>
<text x="555" y="327" font-family="-apple-system, BlinkMacSystemFont, 'Segoe UI', sans-serif" font-size="12" font-weight="600" text-anchor="middle" fill="white">feature/search</text>
<line x1="555" y1="300" x2="555" y2="312" stroke="#7C3AED" stroke-width="1.5"/>
<polygon points="550,300 560,300 555,288" fill="#7C3AED"/>
<text x="220" y="53" font-family="-apple-system, BlinkMacSystemFont, 'Segoe UI', sans-serif" font-size="11" fill="#16A34A">Alice</text>
<text x="460" y="320" font-family="-apple-system, BlinkMacSystemFont, 'Segoe UI', sans-serif" font-size="11" fill="#7C3AED">Bob</text>
<text x="350" y="356" font-family="-apple-system, BlinkMacSystemFont, 'Segoe UI', sans-serif" font-size="11" fill="#64748b" text-anchor="middle">Alice: branch from C2, merge as M1 — Bob: branch from M1, merge as M2</text>
</svg>
