<svg viewBox="0 0 700 310" xmlns="http://www.w3.org/2000/svg">
<text x="350" y="22" font-family="-apple-system, BlinkMacSystemFont, 'Segoe UI', sans-serif" font-size="15" font-weight="bold" text-anchor="middle" fill="#1e293b">Team Workflow</text>
<line x1="90" y1="155" x2="165" y2="155" stroke="#94a3b8" stroke-width="2" fill="none"/>
<line x1="205" y1="155" x2="390" y2="155" stroke="#94a3b8" stroke-width="2" fill="none"/>
<line x1="430" y1="155" x2="570" y2="155" stroke="#94a3b8" stroke-width="2" fill="none"/>
<line x1="193.9" y1="137.1" x2="221.1" y2="82.9" stroke="#94a3b8" stroke-width="2" fill="none"/>
<line x1="250" y1="65" x2="335" y2="65" stroke="#94a3b8" stroke-width="2" fill="none"/>
<line x1="365.4" y1="82.1" x2="399.6" y2="137.9" stroke="#94a3b8" stroke-width="2" fill="none"/>
<line x1="418.1" y1="173.3" x2="441.9" y2="226.7" stroke="#94a3b8" stroke-width="2" fill="none"/>
<line x1="470" y1="245" x2="515" y2="245" stroke="#94a3b8" stroke-width="2" fill="none"/>
<line x1="545.4" y1="227.9" x2="579.6" y2="172.1" stroke="#94a3b8" stroke-width="2" fill="none"/>
<circle cx="70" cy="155" r="20" fill="#FFD700" stroke="#DAA520" stroke-width="2" opacity="1"/>
<text x="70" y="155" font-family="monospace" font-size="12" font-weight="bold" text-anchor="middle" dominant-baseline="middle" fill="#1e293b" opacity="1">C1</text>
<circle cx="185" cy="155" r="20" fill="#FFD700" stroke="#DAA520" stroke-width="2" opacity="1"/>
<text x="185" y="155" font-family="monospace" font-size="12" font-weight="bold" text-anchor="middle" dominant-baseline="middle" fill="#1e293b" opacity="1">C2</text>
<circle cx="230" cy="65" r="20" fill="#FFD700" stroke="#DAA520" stroke-width="2" opacity="1"/>
<text x="230" y="65" font-family="monospace" font-size="12" font-weight="bold" text-anchor="middle" dominant-baseline="middle" fill="#1e293b" opacity="1">C4</text>
<circle cx="355" cy="65" r="20" fill="#FFD700" stroke="#DAA520" stroke-width="2" opacity="1"/>
<text x="355" y="65" font-family="monospace" font-size="12" font-weight="bold" text-anchor="middle" dominant-baseline="middle" fill="#1e293b" opacity="1">C5</text>
<circle cx="410" cy="155" r="20" fill="#EF4444" stroke="#B91C1C" stroke-width="2" opacity="1"/>
<text x="410" y="155" font-family="monospace" font-size="12" font-weight="bold" text-anchor="middle" dominant-baseline="middle" fill="white" opacity="1">M1</text>
<circle cx="450" cy="245" r="20" fill="#FFD700" stroke="#DAA520" stroke-width="2" opacity="1"/>
<text x="450" y="245" font-family="monospace" font-size="12" font-weight="bold" text-anchor="middle" dominant-baseline="middle" fill="#1e293b" opacity="1">C6</text>
<circle cx="535" cy="245" r="20" fill="#FFD700" stroke="#DAA520" stroke-width="2" opacity="1"/>
<text x="535" y="245" font-family="monospace" font-size="12" font-weight="bold" text-anchor="middle" dominant-baseline="middle" fill="#1e293b" opacity="1">C7</text>
<circle cx="590" cy="155" r="20" fill="#EF4444" stroke="#B91C1C" stroke-width="2" opacity="1"/>
<text x="590" y="155" font-family="monospace" font-size="12" font-weight="bold" text-anchor="middle" dominant-baseline="middle" fill="white" opacity="1">M2</text>
<rect x="565.4" y="95.0" width="49.2" height="22" rx="4" fill="#0066CC"/>
<text x="590" y="110.0" font-family="-apple-system, BlinkMacSystemFont, 'Segoe UI', sans-serif" font-size="12" font-weight="600" text-anchor="middle" fill="white">main</text>
<line x1="590" y1="117" x2="590" y2="127.0" stroke="#0066CC" stroke-width="1.5"/>
<polygon points="585,127.0 595,127.0 590,137.0" fill="#0066CC"/>
<rect x="299.2" y="5.0" width="111.6" height="22" rx="4" fill="#16A34A"/>
<text x="355" y="20.0" font-family="-apple-system, BlinkMacSystemFont, 'Segoe UI', sans-serif" font-size="12" font-weight="600" text-anchor="middle" fill="white">feature/auth</text>
<line x1="355" y1="27" x2="355" y2="37.0" stroke="#16A34A" stroke-width="1.5"/>
<polygon points="350,37.0 360,37.0 355,47.0" fill="#16A34A"/>
<rect x="471.4" y="283" width="127.2" height="22" rx="4" fill="#7C3AED"/>
<text x="535" y="298" font-family="-apple-system, BlinkMacSystemFont, 'Segoe UI', sans-serif" font-size="12" font-weight="600" text-anchor="middle" fill="white">feature/search</text>
<line x1="535" y1="273" x2="535" y2="283" stroke="#7C3AED" stroke-width="1.5"/>
<polygon points="530,273 540,273 535,263" fill="#7C3AED"/>
<text x="225" y="-25" font-family="-apple-system, BlinkMacSystemFont, 'Segoe UI', sans-serif" font-size="11" fill="#16A34A" text-anchor="start">Alice</text>
<text x="445" y="323" font-family="-apple-system, BlinkMacSystemFont, 'Segoe UI', sans-serif" font-size="11" fill="#7C3AED" text-anchor="start">Bob</text>
<text x="12" y="290" font-family="-apple-system, BlinkMacSystemFont, 'Segoe UI', sans-serif" font-size="11" fill="#64748b" text-anchor="start">1. Alice branches from C2, works on auth, PR merges as M1</text>
<text x="12" y="303" font-family="-apple-system, BlinkMacSystemFont, 'Segoe UI', sans-serif" font-size="11" fill="#64748b" text-anchor="start">2. Bob branches from M1, works on search, PR merges as M2</text>
</svg>
