<svg viewBox="0 0 1000 280" xmlns="http://www.w3.org/2000/svg">
  <defs>
    <style>
      .commit-circle { fill: #FFD700; stroke: #DAA520; stroke-width: 2; }
      .commit-new { fill: #06B6D4; stroke: #0891B2; stroke-width: 2; }
      .commit-text { font-family: monospace; font-size: 12px; text-anchor: middle; dominant-baseline: middle; font-weight: bold; }
      .commit-text-light { fill: white; }
      .branch-label { font-family: -apple-system, BlinkMacSystemFont, 'Segoe UI', sans-serif; font-size: 13px; font-weight: 600; }
      .branch-main { fill: #0066CC; }
      .branch-feature { fill: #22C55E; }
      .arrow { stroke: #999; stroke-width: 2; fill: none; }
      .arrow-main { stroke: #0066CC; stroke-width: 2.5; }
      .arrow-feature { stroke: #22C55E; stroke-width: 2.5; }
      .arrow-pick { stroke: #06B6D4; stroke-width: 2.5; }
      .label-bg { opacity: 0.15; }
      .section-title { font-size: 14px; font-weight: bold; font-family: sans-serif; }
      .label-text { font-size: 11px; fill: #666; font-family: sans-serif; }
    </style>
    <marker id="arrowhead-main" markerWidth="10" markerHeight="10" refX="9" refY="3" orient="auto">
      <polygon points="0 0, 10 3, 0 6" fill="#0066CC" />
    </marker>
    <marker id="arrowhead-feature" markerWidth="10" markerHeight="10" refX="9" refY="3" orient="auto">
      <polygon points="0 0, 10 3, 0 6" fill="#22C55E" />
    </marker>
    <marker id="arrowhead-pick" markerWidth="10" markerHeight="10" refX="9" refY="3" orient="auto">
      <polygon points="0 0, 10 3, 0 6" fill="#06B6D4" />
    </marker>
  </defs>

  <!-- Title -->
  <text x="500" y="20" style="font-size: 16px; font-weight: bold; text-anchor: middle; font-family: sans-serif;">Cherry-Pick</text>

  <!-- BEFORE section -->
  <text x="50" y="55" class="section-title">BEFORE: git cherry-pick C4</text>

  <!-- Main branch -->
  <circle cx="80" cy="100" r="16" class="commit-circle"/>
  <text x="80" y="100" class="commit-text">C1</text>

  <circle cx="180" cy="100" r="16" class="commit-circle"/>
  <text x="180" y="100" class="commit-text">C2</text>

  <circle cx="280" cy="100" r="16" class="commit-circle"/>
  <text x="280" y="100" class="commit-text">C3</text>

  <!-- Feature branch -->
  <circle cx="280" cy="160" r="16" class="commit-circle"/>
  <text x="280" y="160" class="commit-text">C4</text>

  <circle cx="380" cy="160" r="16" class="commit-circle"/>
  <text x="380" y="160" class="commit-text">C5</text>

  <!-- Arrows -->
  <path d="M 96 100 L 164 100" class="arrow-main" marker-end="url(#arrowhead-main)"/>
  <path d="M 196 100 L 264 100" class="arrow-main" marker-end="url(#arrowhead-main)"/>
  <path d="M 296 160 L 364 160" class="arrow-feature" marker-end="url(#arrowhead-feature)"/>
  <path d="M 280 118 L 280 142" class="arrow-feature" marker-end="url(#arrowhead-feature)"/>

  <!-- Branch labels before -->
  <rect x="310" y="80" width="60" height="22" rx="3" class="branch-main label-bg"/>
  <text x="340" y="96" class="branch-label branch-main">main</text>

  <rect x="390" y="140" width="100" height="22" rx="3" class="branch-feature label-bg"/>
  <text x="440" y="156" class="branch-label branch-feature">feature/new</text>

  <!-- Annotation arrow -->
  <path d="M 260 160 Q 350 120 380 80" class="arrow-pick" stroke-dasharray="5,5" marker-end="url(#arrowhead-pick)"/>
  <text x="320" y="110" class="label-text">copy C4</text>

  <!-- AFTER section -->
  <text x="550" y="55" class="section-title">AFTER: cherry-pick applied</text>

  <!-- Main branch after -->
  <circle cx="580" cy="100" r="16" class="commit-circle"/>
  <text x="580" y="100" class="commit-text">C1</text>

  <circle cx="680" cy="100" r="16" class="commit-circle"/>
  <text x="680" y="100" class="commit-text">C2</text>

  <circle cx="780" cy="100" r="16" class="commit-circle"/>
  <text x="780" y="100" class="commit-text">C3</text>

  <circle cx="880" cy="100" r="16" class="commit-new"/>
  <text x="880" y="100" class="commit-text commit-text-light">C4'</text>

  <!-- Feature branch still intact -->
  <circle cx="780" cy="160" r="16" class="commit-circle"/>
  <text x="780" y="160" class="commit-text">C4</text>

  <circle cx="880" cy="160" r="16" class="commit-circle"/>
  <text x="880" y="160" class="commit-text">C5</text>

  <!-- Arrows after -->
  <path d="M 596 100 L 664 100" class="arrow-main" marker-end="url(#arrowhead-main)"/>
  <path d="M 696 100 L 764 100" class="arrow-main" marker-end="url(#arrowhead-main)"/>
  <path d="M 796 100 L 864 100" class="arrow-pick" marker-end="url(#arrowhead-pick)"/>
  <path d="M 796 160 L 864 160" class="arrow-feature" marker-end="url(#arrowhead-feature)"/>
  <path d="M 780 118 L 780 142" class="arrow-feature" marker-end="url(#arrowhead-feature)"/>

  <!-- Branch labels after -->
  <rect x="850" y="120" width="60" height="22" rx="3" class="branch-main label-bg"/>
  <text x="880" y="136" class="branch-label branch-main">main</text>

  <rect x="850" y="175" width="100" height="22" rx="3" class="branch-feature label-bg"/>
  <text x="900" y="191" class="branch-label branch-feature">feature/new</text>

  <!-- Annotation -->
  <text x="550" y="240" class="label-text">C4 copied to main as C4' (same changes, different hash)</text>
  <text x="550" y="260" class="label-text">Both branches still exist unchanged</text>
</svg>