<svg viewBox="0 0 900 250" xmlns="http://www.w3.org/2000/svg">
  <defs>
    <style>
      .commit-circle { fill: #FFD700; stroke: #DAA520; stroke-width: 2; }
      .commit-text { font-family: monospace; font-size: 12px; text-anchor: middle; dominant-baseline: middle; font-weight: bold; }
      .branch-label { font-family: -apple-system, BlinkMacSystemFont, 'Segoe UI', sans-serif; font-size: 13px; font-weight: 600; }
      .branch-main { fill: #0066CC; }
      .branch-feature { fill: #22C55E; }
      .arrow-main { stroke: #0066CC; stroke-width: 2.5; fill: none; }
      .arrow-feature1 { stroke: #22C55E; stroke-width: 2.5; fill: none; }
      .arrow-feature2 { stroke: #8B5CF6; stroke-width: 2.5; fill: none; }
      .label-bg { opacity: 0.15; }
    </style>
    <marker id="arrowhead-main" markerWidth="10" markerHeight="10" refX="9" refY="3" orient="auto">
      <polygon points="0 0, 10 3, 0 6" fill="#0066CC" />
    </marker>
    <marker id="arrowhead-feature1" markerWidth="10" markerHeight="10" refX="9" refY="3" orient="auto">
      <polygon points="0 0, 10 3, 0 6" fill="#22C55E" />
    </marker>
    <marker id="arrowhead-feature2" markerWidth="10" markerHeight="10" refX="9" refY="3" orient="auto">
      <polygon points="0 0, 10 3, 0 6" fill="#8B5CF6" />
    </marker>
  </defs>

  <!-- Title -->
  <text x="450" y="20" style="font-size: 16px; font-weight: bold; text-anchor: center; font-family: sans-serif;">Multiple Feature Branches</text>

  <!-- Main branch -->
  <circle cx="80" cy="100" r="16" class="commit-circle"/>
  <text x="80" y="100" class="commit-text">C1</text>

  <circle cx="160" cy="100" r="16" class="commit-circle"/>
  <text x="160" y="100" class="commit-text">C2</text>

  <circle cx="240" cy="100" r="16" class="commit-circle"/>
  <text x="240" y="100" class="commit-text">C3</text>

  <circle cx="320" cy="100" r="16" class="commit-circle"/>
  <text x="320" y="100" class="commit-text">C7</text>

  <!-- Main branch arrows -->
  <path d="M 96 100 L 144 100" class="arrow-main" marker-end="url(#arrowhead-main)"/>
  <path d="M 176 100 L 224 100" class="arrow-main" marker-end="url(#arrowhead-main)"/>
  <path d="M 256 100 L 304 100" class="arrow-main" marker-end="url(#arrowhead-main)"/>

  <!-- Auth branch (feature/auth) -->
  <circle cx="240" cy="50" r="16" class="commit-circle"/>
  <text x="240" y="50" class="commit-text">C4</text>

  <circle cx="320" cy="50" r="16" class="commit-circle"/>
  <text x="320" y="50" class="commit-text">C5</text>

  <!-- Auth branch arrows -->
  <path d="M 256 50 L 304 50" class="arrow-feature1" marker-end="url(#arrowhead-feature1)"/>
  <!-- Divergence from main -->
  <path d="M 240 82 L 240 68" class="arrow-feature1" marker-end="url(#arrowhead-feature1)"/>

  <!-- Search branch (feature/search) -->
  <circle cx="160" cy="150" r="16" class="commit-circle"/>
  <text x="160" y="150" class="commit-text">C6</text>

  <circle cx="240" cy="150" r="16" class="commit-circle"/>
  <text x="240" y="150" class="commit-text">C8</text>

  <!-- Search branch arrows -->
  <path d="M 176 150 L 224 150" class="arrow-feature2" marker-end="url(#arrowhead-feature2)"/>
  <!-- Divergence from main -->
  <path d="M 160 118 L 160 132" class="arrow-feature2" marker-end="url(#arrowhead-feature2)"/>

  <!-- Branch labels -->
  <rect x="350" y="80" width="100" height="22" rx="3" class="branch-main label-bg"/>
  <text x="400" y="96" text-anchor="middle" class="branch-label branch-main">main</text>

  <rect x="350" y="30" width="130" height="22" rx="3" class="branch-feature label-bg"/>
  <text x="415" y="46" text-anchor="middle" class="branch-label branch-feature">feature/auth</text>

  <rect x="280" y="170" width="140" height="22" rx="3" fill="#8B5CF6" opacity="0.15"/>
  <text x="350" y="186" text-anchor="middle" style="font-family: -apple-system, BlinkMacSystemFont, 'Segoe UI', sans-serif; font-size: 13px; font-weight: 600; fill: #8B5CF6;">feature/search</text>

  <!-- Annotation -->
  <text x="50" y="220" style="font-size: 12px; fill: #666; font-family: sans-serif;">Each branch has independent commit history</text>
  <text x="50" y="240" style="font-size: 12px; fill: #666; font-family: sans-serif;">main is the integration point for all features</text>
</svg>