<svg viewBox="0 0 1100 350" xmlns="http://www.w3.org/2000/svg">
  <defs>
    <style>
      .commit-circle { fill: #FFD700; stroke: #DAA520; stroke-width: 2; }
      .commit-text { font-family: monospace; font-size: 12px; text-anchor: middle; dominant-baseline: middle; font-weight: bold; }
      .branch-label { font-family: -apple-system, BlinkMacSystemFont, 'Segoe UI', sans-serif; font-size: 13px; font-weight: 600; }
      .branch-main { fill: #0066CC; }
      .branch-remote { fill: #8B5CF6; }
      .arrow-main { stroke: #0066CC; stroke-width: 2.5; fill: none; }
      .arrow-remote { stroke: #8B5CF6; stroke-width: 2.5; fill: none; }
      .label-bg { opacity: 0.15; }
      .section-title { font-size: 14px; font-weight: bold; font-family: sans-serif; }
      .section-label { font-size: 12px; font-weight: 600; font-family: sans-serif; fill: #333; }
      .label-text { font-size: 11px; fill: #666; font-family: sans-serif; }
    </style>
    <marker id="arrowhead-main" markerWidth="10" markerHeight="10" refX="9" refY="3" orient="auto">
      <polygon points="0 0, 10 3, 0 6" fill="#0066CC" />
    </marker>
    <marker id="arrowhead-remote" markerWidth="10" markerHeight="10" refX="9" refY="3" orient="auto">
      <polygon points="0 0, 10 3, 0 6" fill="#8B5CF6" />
    </marker>
  </defs>

  <!-- Title -->
  <text x="550" y="20" style="font-size: 16px; font-weight: bold; text-anchor: center; font-family: sans-serif;">Push and Fetch</text>

  <!-- BEFORE PUSH section -->
  <text x="50" y="55" class="section-title">Local (before push):</text>

  <circle cx="80" cy="100" r="16" class="commit-circle"/>
  <text x="80" y="100" class="commit-text">C1</text>

  <circle cx="160" cy="100" r="16" class="commit-circle"/>
  <text x="160" y="100" class="commit-text">C2</text>

  <circle cx="240" cy="100" r="16" class="commit-circle"/>
  <text x="240" y="100" class="commit-text">C3</text>

  <circle cx="320" cy="100" r="16" class="commit-circle"/>
  <text x="320" y="100" class="commit-text">C4</text>

  <!-- Arrows -->
  <path d="M 96 100 L 144 100" class="arrow-main" marker-end="url(#arrowhead-main)"/>
  <path d="M 176 100 L 224 100" class="arrow-main" marker-end="url(#arrowhead-main)"/>
  <path d="M 256 100 L 304 100" class="arrow-main" marker-end="url(#arrowhead-main)"/>

  <!-- Branch label -->
  <rect x="330" y="125" width="60" height="22" rx="3" class="branch-main label-bg"/>
  <text x="360" y="141" text-anchor="middle" class="branch-label branch-main">main</text>

  <!-- Remote (before push) -->
  <text x="600" y="55" class="section-title">Remote (before push):</text>

  <circle cx="630" cy="100" r="16" class="commit-circle"/>
  <text x="630" y="100" class="commit-text">C1</text>

  <circle cx="710" cy="100" r="16" class="commit-circle"/>
  <text x="710" y="100" class="commit-text">C2</text>

  <!-- Arrows -->
  <path d="M 646 100 L 694 100" class="arrow-remote" marker-end="url(#arrowhead-remote)"/>

  <!-- Branch label -->
  <rect x="720" y="125" width="60" height="22" rx="3" class="branch-remote label-bg"/>
  <text x="750" y="141" text-anchor="middle" class="branch-label branch-remote">main</text>

  <!-- AFTER PUSH section -->
  <text x="50" y="190" class="section-title">After: git push origin main</text>

  <!-- Local after -->
  <text x="50" y="220" class="section-label">Local:</text>

  <circle cx="80" cy="250" r="16" class="commit-circle"/>
  <text x="80" y="250" class="commit-text">C1</text>

  <circle cx="160" cy="250" r="16" class="commit-circle"/>
  <text x="160" y="250" class="commit-text">C2</text>

  <circle cx="240" cy="250" r="16" class="commit-circle"/>
  <text x="240" y="250" class="commit-text">C3</text>

  <circle cx="320" cy="250" r="16" class="commit-circle"/>
  <text x="320" y="250" class="commit-text">C4</text>

  <!-- Arrows -->
  <path d="M 96 250 L 144 250" class="arrow-main" marker-end="url(#arrowhead-main)"/>
  <path d="M 176 250 L 224 250" class="arrow-main" marker-end="url(#arrowhead-main)"/>
  <path d="M 256 250 L 304 250" class="arrow-main" marker-end="url(#arrowhead-main)"/>

  <!-- Branch label -->
  <rect x="330" y="275" width="60" height="22" rx="3" class="branch-main label-bg"/>
  <text x="360" y="291" text-anchor="middle" class="branch-label branch-main">main</text>

  <!-- Remote after -->
  <text x="600" y="220" class="section-label">Remote:</text>

  <circle cx="630" cy="250" r="16" class="commit-circle"/>
  <text x="630" y="250" class="commit-text">C1</text>

  <circle cx="710" cy="250" r="16" class="commit-circle"/>
  <text x="710" y="250" class="commit-text">C2</text>

  <circle cx="790" cy="250" r="16" class="commit-circle"/>
  <text x="790" y="250" class="commit-text">C3</text>

  <circle cx="870" cy="250" r="16" class="commit-circle"/>
  <text x="870" y="250" class="commit-text">C4</text>

  <!-- Arrows -->
  <path d="M 646 250 L 694 250" class="arrow-remote" marker-end="url(#arrowhead-remote)"/>
  <path d="M 726 250 L 774 250" class="arrow-remote" marker-end="url(#arrowhead-remote)"/>
  <path d="M 806 250 L 854 250" class="arrow-remote" marker-end="url(#arrowhead-remote)"/>

  <!-- Branch label -->
  <rect x="880" y="275" width="60" height="22" rx="3" class="branch-remote label-bg"/>
  <text x="910" y="291" text-anchor="middle" class="branch-label branch-remote">main</text>

  <!-- Annotation -->
  <text x="50" y="330" class="label-text">Both local and remote are now synchronized</text>
</svg>